<?xml version="1.0" standalone="no"?><!DOCTYPE svg PUBLIC "-//W3C//DTD SVG 1.1//EN" "http://www.w3.org/Graphics/SVG/1.1/DTD/svg11.dtd"><svg t="1577186573535" class="icon" viewBox="0 0 1024 1024" version="1.1" xmlns="http://www.w3.org/2000/svg" p-id="1068" xmlns:xlink="http://www.w3.org/1999/xlink" width="81" height="81"><defs><style type="text/css"></style></defs><path d="M384 638.025143C248.100571 629.76 131.949714 595.163429 64 546.889143V640c0 63.488 138.386286 116.150857 320 126.244571v63.853715c-135.899429-8.338286-252.050286-42.788571-320-91.136v93.037714H0V223.963429C0 100.278857 200.557714 0 448 0c247.369143 0 447.926857 100.278857 447.926857 223.963429v202.093714h-64V339.456c-78.409143 65.024-221.037714 108.544-384 108.544-162.889143 0-305.517714-43.52-383.926857-108.544v108.544c0 63.414857 138.386286 116.077714 320 126.171429v63.853714zM448 1024C200.557714 1024 0 937.984 0 831.926857h64c0 70.729143 171.885714 128 384 128V1024z m0-640c212.114286 0 384-71.68 384-159.963429 0-88.283429-171.885714-159.963429-384-159.963428s-384 71.68-384 159.963428c0 88.356571 171.885714 160.036571 384 160.036572z m556.836571 419.84l-44.544-25.892571c2.56-13.604571 4.096-27.501714 4.096-41.910858a231.643429 231.643429 0 0 0-4.096-41.910857l44.617143-25.965714a38.619429 38.619429 0 0 0 13.897143-52.516571l-38.034286-66.486858a37.888 37.888 0 0 0-52.077714-14.043428l-45.056 26.185143a227.84 227.84 0 0 0-71.533714-42.203429V486.4a38.253714 38.253714 0 0 0-38.034286-38.4H697.782857a38.253714 38.253714 0 0 0-38.034286 38.4v32.621714c-26.258286 9.508571-50.468571 23.844571-71.533714 42.203429l-45.056-26.185143a37.888 37.888 0 0 0-52.077714 14.043429l-38.034286 66.56a38.619429 38.619429 0 0 0 13.897143 52.443428l44.617143 25.965714c-2.706286 13.824-4.022857 27.794286-4.169143 41.910858 0 14.409143 1.609143 28.306286 4.096 41.910857l-44.544 25.965714a38.619429 38.619429 0 0 0-13.897143 52.516571l38.034286 66.486858a37.888 37.888 0 0 0 52.077714 14.043428l45.056-26.258286c20.992 18.066286 44.909714 32.768 71.533714 42.276572v32.621714c0 21.211429 16.969143 38.4 38.034286 38.4h76.141714a38.253714 38.253714 0 0 0 38.107429-38.4v-32.621714c26.258286-9.581714 50.468571-23.917714 71.533714-42.276572l45.056 26.331429a37.961143 37.961143 0 0 0 52.077715-14.116571l38.034285-66.56a38.619429 38.619429 0 0 0-13.897143-52.516572z m-47.250285 37.814857l-17.554286 29.915429a17.700571 17.700571 0 0 1-23.990857 6.290285l-48.786286-27.648a175.981714 175.981714 0 0 1-96.182857 54.637715v37.961143c0 9.508571-7.826286 17.188571-17.554286 17.188571h-35.108571a17.408 17.408 0 0 1-17.554286-17.261714v-37.888a175.981714 175.981714 0 0 1-96.182857-54.637715L555.885714 877.714286a17.700571 17.700571 0 0 1-23.990857-6.290286l-17.554286-29.915429a17.042286 17.042286 0 0 1 6.363429-23.405714l49.005714-27.794286a168.228571 168.228571 0 0 1-9.289143-54.418285c0-19.017143 3.437714-37.302857 9.362286-54.418286l-49.005714-27.794286a17.042286 17.042286 0 0 1-6.436572-23.405714l17.554286-29.988571a17.700571 17.700571 0 0 1 23.990857-6.217143l48.786286 27.648a175.981714 175.981714 0 0 1 96.182857-54.637715v-38.034285c0-9.508571 7.826286-17.115429 17.554286-17.115429h35.108571c9.728 0 17.554286 7.68 17.554286 17.261714v37.888c37.156571 7.387429 70.875429 26.550857 96.182857 54.637715l48.786286-27.648a17.700571 17.700571 0 0 1 23.990857 6.290285l17.554286 29.842286a17.042286 17.042286 0 0 1-6.436572 23.478857l-48.932571 27.794286c5.778286 17.188571 9.289143 35.328 9.289143 54.418286 0 19.017143-3.437714 37.302857-9.289143 54.418285l49.005714 27.794286a17.042286 17.042286 0 0 1 6.363429 23.405714z m-221.622857-201.654857a95.963429 95.963429 0 1 0 0 192 95.963429 95.963429 0 0 0 0-192z m0 128a31.963429 31.963429 0 1 1 0-64 31.963429 31.963429 0 0 1 0 64z" p-id="13063"></path></svg>