<?xml version="1.0" standalone="no"?><!DOCTYPE svg PUBLIC "-//W3C//DTD SVG 1.1//EN" "http://www.w3.org/Graphics/SVG/1.1/DTD/svg11.dtd"><svg t="1577186573535" class="icon" viewBox="0 0 1024 1024" version="1.1" xmlns="http://www.w3.org/2000/svg" p-id="1068" xmlns:xlink="http://www.w3.org/1999/xlink" width="81" height="81"><defs><style type="text/css"></style></defs><path d="M917.111063 414.494269 917.111063 125.617999c0-25.526373-20.693298-46.219671-46.219671-46.219671L547.350624 79.398328c-25.526373 0-46.219671 20.693298-46.219671 46.219671l0 288.875247c0 25.526373 20.693298 46.219671 46.219671 46.219671l323.540767 0C896.417765 460.71394 917.111063 440.020642 917.111063 414.494269zM824.670697 345.163227c0 12.763698-10.346649 23.110347-23.110347 23.110347l-184.880731 0c-12.763698 0-23.110347-10.346649-23.110347-23.110347L593.569272 194.948017c0-12.763698 10.346649-23.110347 23.110347-23.110347l184.880731 0c12.763698 0 23.110347 10.346649 23.110347 23.110347L824.670697 345.163227zM453.920722 563.28606 130.378931 563.28606c-25.526373 0-46.219671 20.693298-46.219671 46.219671l0 288.875247c0 25.526373 20.693298 46.219671 46.219671 46.219671l323.540767 0c25.526373 0 46.219671-20.693298 46.219671-46.219671L500.13937 609.505731C500.140393 583.979358 479.447095 563.28606 453.920722 563.28606zM407.700027 829.051983c0 12.763698-10.346649 23.110347-23.110347 23.110347l-184.880731 0c-12.763698 0-23.110347-10.346649-23.110347-23.110347L176.598602 678.836773c0-12.763698 10.346649-23.110347 23.110347-23.110347l184.880731 0c12.763698 0 23.110347 10.346649 23.110347 23.110347L407.700027 829.051983zM184.924221 479.382115l126.216633-147.500379L237.110791 331.881736c0.606821-83.155908 65.538669-150.376892 145.57861-150.376892l34.332946 0L417.022347 80.07064l-34.332946 0c-133.002177 0-240.820788 112.216781-240.820788 250.643504 0 0.390903 0.008186 0.779759 0.014326 1.168616L58.707588 331.882759 184.924221 479.382115zM965.292412 692.790576 839.075779 545.290197 712.858122 692.790576l74.031087 0c-0.606821 83.155908-65.538669 150.376892-145.57861 150.376892l-34.332946 0 0 101.435227 34.332946 0c133.002177 0 240.820788-112.216781 240.820788-250.643504 0-0.390903-0.008186-0.779759-0.014326-1.168616L965.292412 692.790576z" p-id="2044"></path></svg>