<?xml version="1.0" standalone="no"?><!DOCTYPE svg PUBLIC "-//W3C//DTD SVG 1.1//EN" "http://www.w3.org/Graphics/SVG/1.1/DTD/svg11.dtd"><svg t="1577186573535" class="icon" viewBox="0 0 1024 1024" version="1.1" xmlns="http://www.w3.org/2000/svg" p-id="1068" xmlns:xlink="http://www.w3.org/1999/xlink" width="81" height="81"><defs><style type="text/css"></style></defs><path d="M90.999467 90.999467v682.5984l364.1344 0.068266v91.067734l-409.6-0.136534A45.533867 45.533867 0 0 1 0 819.2V45.533867C0 20.343467 20.343467 0 45.533867 0h728.064c25.122133 0 45.533867 20.343467 45.533866 45.533867v341.333333h-91.067733V90.999467H90.999467zM182.0672 273.066667V182.0672h455.0656V273.066667H181.998933z m0 181.998933V364.066133h318.532267v90.999467H182.0672z" p-id="21156"></path><path d="M948.224 841.3184c4.778667 9.557333 1.911467 20.8896-7.5776 25.6l-176.401067 96.733867a30.856533 30.856533 0 0 1-13.243733 3.822933 21.777067 21.777067 0 0 1-13.312-3.822933l-176.3328-95.778134c-9.489067-4.778667-12.288-16.110933-7.5776-25.6 4.778667-9.489067 16.110933-12.288 25.6-7.509333l171.6224 93.7984 171.6224-94.8224c9.489067-4.778667 20.821333-1.911467 25.6 7.5776z m-0.477867-120.354133c4.778667 9.557333 1.911467 20.8896-7.5776 25.6l-176.401066 96.733866a30.3104 30.3104 0 0 1-13.243734 2.8672 21.777067 21.777067 0 0 1-13.312-3.822933l-176.3328-95.778133a19.729067 19.729067 0 0 1-6.621866-25.6c4.778667-8.533333 16.110933-11.332267 24.644266-7.509334l171.6224 93.7984 171.6224-93.866666c9.489067-4.778667 20.821333-1.8432 25.6 7.5776z m-183.978666-239.2064l177.3568 96.733866a28.808533 28.808533 0 0 1 11.332266 37.956267 32.699733 32.699733 0 0 1-11.332266 11.332267l-177.3568 94.890666a21.777067 21.777067 0 0 1-13.243734 3.754667 21.777067 21.777067 0 0 1-13.312-3.822933L560.878933 626.824533a28.808533 28.808533 0 0 1-11.400533-37.888 24.098133 24.098133 0 0 1 11.400533-10.4448L737.28 481.757867a26.555733 26.555733 0 0 1 26.624 0z m-13.243734 36.0448L595.012267 602.180267l155.511466 84.3776 155.511467-84.3776-155.511467-84.3776z" p-id="21157"></path></svg>