<?xml version="1.0" standalone="no"?><!DOCTYPE svg PUBLIC "-//W3C//DTD SVG 1.1//EN" "http://www.w3.org/Graphics/SVG/1.1/DTD/svg11.dtd"><svg t="1577186573535" class="icon" viewBox="0 0 1024 1024" version="1.1" xmlns="http://www.w3.org/2000/svg" p-id="1068" xmlns:xlink="http://www.w3.org/1999/xlink" width="81" height="81"><defs><style type="text/css"></style></defs><path d="M544 192q0-13-9.5-22.5t-22.5-9.5-22.5 9.5-9.5 22.5 9.5 22.5 22.5 9.5 22.5-9.5 9.5-22.5zm416 464l0 176q0 11-10 15-4 1-6 1-6.5 0-11.5-4.5l-46.5-46.5q-59.5 71.5-159.25 113.25t-214.75 41.75-214.75-41.75-159.25-113.25l-46.5 46.5q-4.5 4.5-11.5 4.5-2 0-6-1-10-4-10-15l0-176q0-7 4.5-11.5t11.5-4.5l176 0q11 0 15 10 4 9.5-3.5 17.5l-50 50q33.5 45.5 94.75 76.75t135.75 41.25l0-323.5-96 0q-13 0-22.5-9.5t-9.5-22.5l0-64q0-13 9.5-22.5t22.5-9.5l96 0 0-81.5q-29-17-46.5-46.25t-17.5-64.25q0-53 37.5-90.5t90.5-37.5 90.5 37.5 37.5 90.5q0 35-17.5 64.25t-46.5 46.25l0 81.5 96 0q13 0 22.5 9.5t9.5 22.5l0 64q0 13-9.5 22.5t-22.5 9.5l-96 0 0 323.5q74.5-10 135.75-41.25t94.75-76.75l-50-50q-7.5-8-3.5-17.5 4-10 15-10l176 0q7 0 11.5 4.5t4.5 11.5z" p-id="1770"></path></svg>