<?xml version="1.0" standalone="no"?><!DOCTYPE svg PUBLIC "-//W3C//DTD SVG 1.1//EN" "http://www.w3.org/Graphics/SVG/1.1/DTD/svg11.dtd"><svg t="1577186573535" class="icon" viewBox="0 0 1024 1024" version="1.1" xmlns="http://www.w3.org/2000/svg" p-id="1068" xmlns:xlink="http://www.w3.org/1999/xlink" width="81" height="81"><defs><style type="text/css"></style></defs><path d="M992.896 704.576h-396.16a16.384 16.384 0 0 1-16.448-16.128v-38.08a16.256 16.256 0 0 1 16.448-16.064h396.16c8.96 0 16.192 7.168 16.32 16.064v38.08a16.192 16.192 0 0 1-16.32 16.128z m0 140.8h-396.16a16.384 16.384 0 0 1-16.448-16.128v-38.144a16.256 16.256 0 0 1 16.448-16h396.16c8.96-0.064 16.192 7.104 16.32 16v38.016a16.384 16.384 0 0 1-16.32 16.192z m0 140.672h-396.16a16.384 16.384 0 0 1-16.448-16v-38.144a16.256 16.256 0 0 1 16.448-16.128h396.16c8.96 0 16.192 7.168 16.32 16.128v37.952a16.448 16.448 0 0 1-16.32 16.192zM508.864 628.096v71.488c-115.392 0-209.344-92.416-209.344-206.08 0-113.536 93.824-205.952 209.28-205.952s209.408 92.352 209.408 206.016c0 24.064-4.16 47.872-12.48 70.4H625.216c13.312-21.12 20.48-45.504 20.48-70.4 0-74.112-61.44-134.464-136.832-134.464-75.264 0-136.704 60.352-136.704 134.4 0 74.24 61.312 134.592 136.704 134.592z m-17.28 286.272a17.088 17.088 0 0 1 17.408 17.024v37.504a17.28 17.28 0 0 1-17.28 17.024H423.488a60.8 60.8 0 0 1-61.376-57.344l-9.984-72.32a408 408 0 0 1-84.16-47.616l-68.352 27.52a61.888 61.888 0 0 1-81.28-23.488L32.64 667.072a59.712 59.712 0 0 1 19.84-81.024l58.624-44.608a357.12 357.12 0 0 1 0-95.616l-58.432-44.672a59.648 59.648 0 0 1-20.032-80.64l85.632-145.92a61.888 61.888 0 0 1 81.088-23.552l68.48 27.52A394.24 394.24 0 0 1 352 130.944L362.048 58.752A60.608 60.608 0 0 1 423.232 1.28h171.136c32.832 0 59.648 25.088 61.184 57.408l9.984 72.256c29.952 12.416 58.24 28.416 84.352 47.616l68.48-27.392a62.08 62.08 0 0 1 81.088 23.488l85.376 145.728a59.712 59.712 0 0 1-19.84 81.024l-58.56 44.48c4.16 31.68 4.16 64 0 95.616l29.568 22.528h-106.944l2.496-13.44a305.088 305.088 0 0 0 0-113.856l-3.904-21.184 89.28-67.968-76.352-130.304-103.36 43.712-16.896-14.208a325.12 325.12 0 0 0-100.288-56.64l-20.608-7.424-15.232-110.016H433.344l-15.232 110.08-20.608 7.36a329.984 329.984 0 0 0-100.352 56.768l-16.832 13.952-104.192-41.92-75.52 128.384 89.344 67.968-3.904 21.312c-3.584 18.752-5.44 37.76-5.504 56.832 0.128 19.072 1.92 38.144 5.376 56.96l3.84 21.248L100.48 639.68l76.544 130.24 103.232-43.712 17.024 14.08c29.824 24.704 63.744 43.904 100.288 56.704l20.608 7.36 15.232 110.08h58.112z" p-id="7364"></path></svg>