<?xml version="1.0" standalone="no"?><!DOCTYPE svg PUBLIC "-//W3C//DTD SVG 1.1//EN" "http://www.w3.org/Graphics/SVG/1.1/DTD/svg11.dtd"><svg class="icon" style="width: 1em;height: 1em;vertical-align: inherit;fill: currentColor;overflow: hidden;" viewBox="0 0 1024 1024" version="1.1" xmlns="http://www.w3.org/2000/svg" p-id="2961"><path d="M866.304 689.3568c-12.288-12.288-33.5872-3.6864-33.5872 13.9264v59.392H675.84L538.624 507.904 675.84 253.5424h157.2864V307.2c0 17.6128 21.2992 26.2144 33.5872 13.9264l84.3776-84.3776c7.7824-7.7824 7.7824-20.0704 0-27.8528l-84.3776-84.3776c-12.288-12.288-33.5872-3.6864-33.5872 13.9264v53.6576h-175.7184c-11.4688 0-21.7088 6.144-27.0336 15.9744L503.808 443.1872 377.2416 208.0768c-5.3248-9.8304-15.5648-15.9744-27.0336-15.9744H174.8992V138.4448c0-17.6128-21.2992-26.2144-33.5872-13.9264L56.9344 208.896c-7.7824 7.7824-7.7824 20.0704 0 27.8528l84.3776 84.3776c12.288 12.288 33.5872 3.6864 33.5872-13.9264V253.5424H331.776l137.216 254.3616L331.776 762.2656H174.8992V708.608c0-17.6128-21.2992-26.2144-33.5872-13.9264l-84.3776 84.3776c-7.7824 7.7824-7.7824 20.0704 0 27.8528l84.3776 84.3776c12.288 12.288 33.5872 3.6864 33.5872-13.9264v-53.6576h175.7184c11.4688 0 21.7088-6.144 27.0336-15.9744l126.5664-235.1104 126.5664 235.1104c5.3248 9.8304 15.5648 15.9744 27.0336 15.9744h175.7184v47.5136c0 17.6128 21.2992 26.2144 33.5872 13.9264l84.3776-84.3776c7.7824-7.7824 7.7824-20.0704 0-27.8528l-85.1968-83.5584z" fill="#231815" p-id="2962"></path></svg>