<?xml version="1.0" standalone="no"?><!DOCTYPE svg PUBLIC "-//W3C//DTD SVG 1.1//EN" "http://www.w3.org/Graphics/SVG/1.1/DTD/svg11.dtd"><svg t="1575802859706" class="icon" viewBox="0 0 1024 1024" version="1.1" xmlns="http://www.w3.org/2000/svg" p-id="3102" xmlns:xlink="http://www.w3.org/1999/xlink" width="200" height="200"><defs><style type="text/css"></style></defs><path d="M485.871492 47.174338c-9.168729-0.008066-18.33651 3.392487-25.137616 10.224908L57.381424 460.755494c-13.603161 13.602212-13.540056 36.674443 0.062631 50.276655l403.288872 403.286025c13.603161 13.606956 36.673969 13.66674 50.276655 0l403.352926-403.350079c13.602686-13.601737 13.539581-36.674918-0.064054-50.27713L511.009107 57.399246c-6.801106-6.801106-15.969361-10.217316-25.137615-10.224908z m-0.030841 59.805036l378.943153 378.946-378.943153 378.94173-378.943153-378.94173 378.943153-378.946z m-10.34495 156.490911c0 0.004745-4.581992 0.872083-4.584365 0.872082-0.004745 0-3.752138 2.525623-3.754984 2.525624-0.004745 0.004745-2.608182 3.856048-2.610555 3.856047 0 0.004745-0.882521 4.590533-0.883944 4.590533V463.610402H275.283938l-0.03179-0.037009c0 0.004745-4.563488 1.010154-4.56586 1.010155-0.004745 0.004745-3.751663 2.525149-3.754036 2.525149l0.003796-0.046499c-0.004745 0.004745-2.608182 3.856048-2.610554 3.856048-0.004745 0-0.882996 4.591007-0.884893 4.591007v20.625371s0.876827 4.641776 0.908142 4.673566c0 0.004745 2.599167 3.764474 2.599167 3.764474 0.004745 0.004745 3.775387 2.525149 3.776811 2.525149 0.004745 0.004745 4.581518 1.009206 4.583415 1.009206h188.355615v188.264041l-0.029892-0.02752c0 0.004745 0.909092 4.673566 0.908617 4.673566 0 0.004745 2.598218 3.764 2.598218 3.764 0.004745 0.004745 3.776811 2.5242 3.777285 2.5242 0 0 4.550203 0.964131 4.584365 1.010629l20.6211-0.004745c0.005219 0 4.671668-0.964131 4.674515-0.964131 0 0 3.752138-2.5242 3.754985-2.5242 0.004745-0.004745 2.595371-3.765423 2.598218-3.765423 0 0 0.895332-4.659332 0.896755-4.659331V508.125523h188.309116c0.005219 0.004745 4.672142-0.963656 4.67404-0.963656 0.004745 0 3.753087-2.525149 3.754985-2.525149 0.004745-0.004745 2.595846-3.764474 2.598692-3.764474 0 0 0.894857-4.659332 0.896756-4.659332v-20.6211c0-0.004745-0.890587-4.545458-0.889164-4.591008-0.004745-0.004745-2.585882-3.856048-2.618146-3.856047-0.004745-0.004745-3.775862-2.5242-3.77681-2.5242 0 0.004745-4.659332-1.010629-4.661704-0.964605h-188.289188V275.364866c0-0.004745-0.891062-4.544034-0.889638-4.590059-0.004745-0.004745-2.585882-3.856997-2.585882-3.856996-0.004745-0.004745-3.774913-2.5242-3.775862-2.5242-0.004745 0-4.672617-0.918581-4.674514-0.918582l-20.624897-0.004744z" fill=""></path></svg>