<?xml version="1.0" standalone="no"?><!DOCTYPE svg PUBLIC "-//W3C//DTD SVG 1.1//EN" "http://www.w3.org/Graphics/SVG/1.1/DTD/svg11.dtd"><svg t="1575802859706" class="icon" viewBox="0 0 1024 1024" version="1.1" xmlns="http://www.w3.org/2000/svg" p-id="3102" xmlns:xlink="http://www.w3.org/1999/xlink" width="200" height="200"><defs><style type="text/css"></style></defs><path d="M482.024947 46.953639C310.828889 46.385039 146.559023 157.002892 81.583423 315.240756c-68.401914 156.698657-32.861567 351.356822 86.79076 473.5669 115.078847 123.873162 304.684635 169.339328 463.480183 111.381048 164.570777-56.040797 286.06702-217.659885 292.671418-391.608765 11.077733-170.926472-89.483304-341.454734-243.459991-415.910007C620.771887 62.58207 553.442624 46.891463 486.070171 46.987812a395.029857 395.029857 0 0 0-4.045224-0.034173z m12.032202 47.449147c167.577048 0.920297 325.404836 122.149326 368.744211 284.314232 46.052802 155.158027-16.238798 334.802399-149.936684 426.699168C573.983417 907.496021 368.031091 900.110866 236.881464 788.256142c-132.142067-105.357116-179.442182-300.235981-111.644465-454.776521C183.998817 190.611517 331.503051 92.637183 486.070171 94.450248c2.664541-0.046513 5.327184-0.061701 7.986978-0.047462z" fill=""></path></svg>