<?xml version="1.0" standalone="no"?><!DOCTYPE svg PUBLIC "-//W3C//DTD SVG 1.1//EN" "http://www.w3.org/Graphics/SVG/1.1/DTD/svg11.dtd"><svg t="1575802859706" class="icon" viewBox="0 0 1024 1024" version="1.1" xmlns="http://www.w3.org/2000/svg" p-id="3102" xmlns:xlink="http://www.w3.org/1999/xlink" width="200" height="200"><defs><style type="text/css"></style></defs><path d="M1032.405146 823.402054C867.574662 759.620909 684.652013 680.582317 669.144442 631.224883L669.144442 579.532973C703.57792 544.599251 730.507738 495.742061 746.265427 438.714214 767.525811 423.790259 781.616026 398.611302 781.616026 370.097376 781.616026 349.920858 774.195731 331.661946 762.356621 317.154861L762.356621 201.431686C762.356621 81.956685 695.907507 0.166746 543.749875 0.166746 395.677574 0.166746 325.143136 81.956685 325.143136 201.431686L325.143136 317.154861C313.387398 331.578573 306.383974 349.920858 306.383974 370.014003 306.383974 398.52793 320.057318 423.706886 341.15095 438.630842 357.242144 495.742061 384.338707 544.599251 418.355315 579.532973L418.355315 631.224883C403.01449 680.415565 220.09184 759.537536 55.261357 823.402054 41.171142 828.73799 32 842.494707 32 857.668781L32 987.065299C32 1007.408563 48.257939 1023.833254 68.267712 1023.833254L1019.648915 1023.833254C1039.575315 1023.833254 1056 1007.408563 1056 987.065299L1056 857.668781C1055.916627 842.494707 1046.578733 828.73799 1032.405146 823.402054L1032.405146 823.402054Z" fill=""></path></svg>