<?xml version="1.0" standalone="no"?><!DOCTYPE svg PUBLIC "-//W3C//DTD SVG 1.1//EN" "http://www.w3.org/Graphics/SVG/1.1/DTD/svg11.dtd"><svg t="1575802859706" class="icon" viewBox="0 0 1024 1024" version="1.1" xmlns="http://www.w3.org/2000/svg" p-id="3102" xmlns:xlink="http://www.w3.org/1999/xlink" width="200" height="200"><defs><style type="text/css"></style></defs><path d="M882.688 935.70844445c-20.48 0-40.04977778-12.06044445-48.69688889-32.08533334l-0.11377778-0.11377778-115.48444444-269.08444444H310.04444445L189.66755555 904.30577778c-11.94666667 26.73777778-43.23555555 38.68444445-69.97333333 26.73777777s-38.68444445-43.23555555-26.73777777-69.97333333l328.81777777-736.82488889c11.49155555-25.82755555 32.42666667-45.62488889 58.82311111-55.75111111 26.39644445-10.12622222 55.18222222-9.32977778 81.00977778 2.16177778 24.34844445 10.92266667 43.69066667 30.37866667 54.15822222 54.95466667l315.61955556 736.14222222c11.49155555 26.85155555-0.91022222 58.02666667-27.76177778 69.51822222-6.82666667 2.95822222-13.88088889 4.43733333-20.93511111 4.43733334zM357.376 528.49777778h315.96088889l-154.73777778-361.01688889-161.22311111 361.01688889z"></path></svg>