<?xml version="1.0" standalone="no"?><!DOCTYPE svg PUBLIC "-//W3C//DTD SVG 1.1//EN" "http://www.w3.org/Graphics/SVG/1.1/DTD/svg11.dtd"><svg t="1575802859706" class="icon" viewBox="0 0 1024 1024" version="1.1" xmlns="http://www.w3.org/2000/svg" p-id="3102" xmlns:xlink="http://www.w3.org/1999/xlink" width="200" height="200"><defs><style type="text/css"></style></defs><path d="M682.28 627.98c0 16.62 13.44 30.06 30.06 30.06h240.6a30.12 30.12 0 0 0 0-60.18h-240.6a30.12 30.12 0 0 0-30.12 30.12zM952.88 725.54H604.4a30.12 30.12 0 1 0 0 60.18h348.6a30.12 30.12 0 0 0 0-60.18zM952.88 853.82H484.4a30.12 30.12 0 1 0 0 60.18h468.6a30.12 30.12 0 0 0 0-60.18zM118.22 615.98l44.4 44.4 172.68 172.62 471.06-471c39.84-39.9 36.18-108.42-8.22-152.76l-63.3-63.36c-44.4-44.4-112.92-48.12-152.76-8.28L111.02 608.72 42.08 861.14a31.68 31.68 0 0 0 38.94 39l252.48-68.82-51.66-51.72-163.98 44.76 44.7-163.98-44.4-44.4zM632 187.58c15.12-15.12 41.16-13.68 57.96 3.12L753.32 254c16.8 16.92 18.24 42.9 3.06 58.02L684.2 384.2 559.76 259.88 632 187.58zM509.9 309.8l124.38 124.38L330.2 738.2 205.82 613.82l304.08-304.08z" fill=""></path></svg>