<svg width="20" height="20" viewBox="0 0 20 20" fill="none" xmlns="http://www.w3.org/2000/svg"><path fill-rule="evenodd" clip-rule="evenodd" d="M18.14 9.428l-.003.019L17.114 15a3.774 3.774 0 0 1-1.313 2.27 3.673 3.673 0 0 1-2.438.894H3.895c-.57 0-1.055-.205-1.458-.614a2.033 2.033 0 0 1-.604-1.48v-5.438c0-.578.201-1.071.604-1.48.402-.41.888-.614 1.458-.614h1.932l2.317-5.293c.24-.548.6-.948 1.083-1.2.599-.312 1.156-.278 1.672.103.782.577 1.172 1.355 1.172 2.334V6.997h3.994c.638-.007 1.167.235 1.588.726.421.492.584 1.06.488 1.705zm-2.076-2.6c.686-.007 1.262.256 1.714.785.453.529.63 1.146.527 1.84v.004l-.005.02v.003l-1.022 5.552a3.943 3.943 0 0 1-1.37 2.368 3.838 3.838 0 0 1-2.545.933H3.895a2.137 2.137 0 0 1-1.576-.663 2.203 2.203 0 0 1-.652-1.6v-5.437c0-.622.218-1.159.652-1.6.434-.44.962-.663 1.576-.663H5.72l2.273-5.192c.254-.58.64-1.01 1.159-1.282.32-.167.64-.246.953-.227.315.02.613.137.893.344.824.608 1.24 1.437 1.24 2.47v2.345h3.827zM9.741 3.063c-.247.128-.437.344-.57.647L6.708 9.34v7.683h6.655a2.59 2.59 0 0 0 1.72-.63c.498-.42.807-.955.926-1.601l1.02-5.544a.936.936 0 0 0-.225-.773.917.917 0 0 0-.739-.335h-4.557a.567.567 0 0 1-.562-.571V4.483c0-.591-.236-1.061-.708-1.41-.143-.105-.309-.109-.497-.01zm7.124 6.157a.766.766 0 0 0-.186-.636.753.753 0 0 0-.612-.276h-4.559a.734.734 0 0 1-.728-.74V4.483c0-.537-.21-.956-.64-1.273a.233.233 0 0 0-.137-.05.387.387 0 0 0-.185.053c-.208.108-.374.291-.495.566m0 0L6.874 9.375v7.479h6.489c.609 0 1.145-.197 1.614-.592.468-.396.757-.894.869-1.502l1.02-5.54M3.35 16.623c.152.155.33.23.545.23h1.522V9.85H3.895a.732.732 0 0 0-.545.23.755.755 0 0 0-.226.553v5.437c0 .218.074.4.226.553zm.545-6.941a.897.897 0 0 0-.663.278.924.924 0 0 0-.274.673v5.437c0 .263.091.487.274.673.183.186.404.28.663.28h1.688V9.681H3.895z" fill="currentColor"></path><path fill-rule="evenodd" clip-rule="evenodd" d="M18.137 9.447l.004-.02a2.044 2.044 0 0 0-.488-1.704c-.421-.491-.95-.733-1.588-.726h-2.282l1.584 1.142h.698a.917.917 0 0 1 .739.335.936.936 0 0 1 .225.773l-1.02 5.543a2.663 2.663 0 0 1-.926 1.602 2.59 2.59 0 0 1-1.72.63H6.708V9.34L9.171 3.71c.133-.303.323-.519.57-.647.188-.099.354-.095.497.01.472.349.708.819.708 1.41v.467l1.125.811V4.483c0-.98-.39-1.757-1.171-2.334-.517-.38-1.074-.415-1.673-.103-.482.252-.843.652-1.083 1.2L5.827 8.54H3.895c-.57 0-1.056.205-1.458.614a2.033 2.033 0 0 0-.604 1.48v5.437c0 .578.201 1.072.604 1.48.403.41.889.615 1.458.615h9.468c.918 0 1.731-.299 2.438-.895A3.774 3.774 0 0 0 17.114 15l1.023-5.553zm-14.242.235a.897.897 0 0 0-.663.278.924.924 0 0 0-.274.673v5.437c0 .263.091.487.274.673.183.186.404.28.663.28h1.688V9.681H3.895z" fill="currentColor"></path><path d="M10.946 7.568c0 .316.252.571.563.571h3.858l-1.584-1.142h-1.712V5.76l-1.125-.811v2.618z" fill="currentColor"></path></svg>