<svg width="20" height="20" viewBox="0 0 20 20" fill="none" xmlns="http://www.w3.org/2000/svg"><path fill-rule="evenodd" clip-rule="evenodd" d="M18.304 10.543v.004a2.214 2.214 0 0 1-.526 1.84c-.452.528-1.028.792-1.714.784h-3.827v2.345c0 1.034-.416 1.863-1.24 2.471-.28.207-.578.324-.893.343-.314.02-.632-.06-.953-.226-.519-.271-.905-.702-1.159-1.282l-2.273-5.193H3.895a2.136 2.136 0 0 1-1.576-.663 2.203 2.203 0 0 1-.652-1.6V3.93c0-.623.218-1.16.652-1.6.434-.441.963-.663 1.576-.663h9.468c.957 0 1.807.311 2.544.933a3.943 3.943 0 0 1 1.37 2.368L18.3 10.52v.002l.004.02zm-1.19-5.544a3.774 3.774 0 0 0-1.313-2.27 3.673 3.673 0 0 0-2.438-.894H3.895c-.57 0-1.055.205-1.458.614a2.033 2.033 0 0 0-.604 1.48v5.437c0 .578.201 1.072.604 1.48.402.41.888.615 1.458.615h1.932l2.317 5.292c.24.549.6.949 1.083 1.2.599.313 1.156.279 1.672-.102.782-.577 1.172-1.355 1.172-2.335v-2.513h3.994c.638.007 1.167-.235 1.588-.727.421-.491.584-1.06.488-1.704l-.004-.02L17.114 5zM9.819 16.787c.076.04.137.053.185.052a.233.233 0 0 0 .137-.05c.43-.316.64-.735.64-1.273v-3.084c0-.41.327-.74.729-.74h4.558a.752.752 0 0 0 .612-.277.766.766 0 0 0 .186-.635l-1.02-5.54a2.495 2.495 0 0 0-.869-1.502 2.426 2.426 0 0 0-1.613-.592H6.874v7.48l2.449 5.595m-2.615-5.56V2.978h6.655c.648 0 1.221.21 1.72.63.498.42.807.954.926 1.601l1.02 5.543a.936.936 0 0 1-.225.774.917.917 0 0 1-.739.335h-4.557a.567.567 0 0 0-.562.57v3.085c0 .592-.236 1.062-.708 1.41-.143.106-.309.11-.497.01-.247-.128-.437-.343-.57-.647l-2.463-5.628zM3.35 3.376a.754.754 0 0 0-.226.554v5.436c0 .218.074.4.226.554.152.154.33.23.545.23h1.522V3.146H3.895a.731.731 0 0 0-.545.23zm2.233-.398v7.34H3.895a.897.897 0 0 1-.663-.279.925.925 0 0 1-.274-.673V3.93c0-.263.091-.487.274-.673a.895.895 0 0 1 .663-.28h1.688zm4.235 13.809c-.208-.108-.375-.292-.495-.566l.495.566z" fill="currentColor"></path><path fill-rule="evenodd" clip-rule="evenodd" d="M15.801 2.73a3.774 3.774 0 0 1 1.313 2.269l1.023 5.554.004.019a2.044 2.044 0 0 1-.488 1.704c-.421.492-.95.734-1.588.727h-3.994v2.513c0 .98-.39 1.758-1.171 2.335-.517.38-1.074.415-1.673.102-.482-.251-.843-.651-1.083-1.2l-2.317-5.292H3.895c-.57 0-1.056-.205-1.458-.614a2.033 2.033 0 0 1-.604-1.48V3.93c0-.579.201-1.072.604-1.481.403-.41.889-.614 1.458-.614h9.468c.918 0 1.731.298 2.438.894zm-2.438.248c.648 0 1.221.21 1.72.63.498.42.807.954.926 1.601l1.02 5.543a.936.936 0 0 1-.225.774.917.917 0 0 1-.739.335h-4.557a.567.567 0 0 0-.562.57v3.085c0 .592-.236 1.062-.708 1.41-.143.106-.309.11-.497.01-.247-.128-.437-.343-.57-.647l-2.463-5.628V2.978h6.655zm-9.468 7.34a.897.897 0 0 1-.663-.279.925.925 0 0 1-.274-.673V3.93c0-.263.091-.487.274-.673a.895.895 0 0 1 .663-.28h1.688v7.341H3.895z" fill="currentColor"></path></svg>