<svg class="icon" style="width: 1em;height: 1em;vertical-align: middle;fill: currentColor;overflow: hidden;" viewBox="0 0 1024 1024" version="1.1" xmlns="http://www.w3.org/2000/svg" p-id="4327"><path d="M669.827523 105.218349q0 16.910092-7.515596 32.880734t-20.66789 27.244036L452.814679 325.988991q-40.39633 33.820183-93.005505 37.577981l-73.277064 3.757799 280.895413 281.834862 3.757798-74.216514q3.757798-52.609174 37.577982-93.005504l160.645871-188.829358q11.273394-13.152294 27.244037-20.66789t32.880734-7.515596h39.456881L768.469725 165.343119 669.827523 65.761468v39.456881zM659.493578 0q18.788991 0 32.880734 14.091743L806.987156 128.704587l113.673394 113.673395q11.273394 10.333945 13.622019 25.834862T929.115596 296.866055q-11.273394 21.607339-39.45688 21.607339h-60.124771q-12.212844 0-19.72844 9.394496L649.159633 515.757798q-22.546789 27.244037-24.425688 62.00367l-5.636697 92.066055q-1.878899 20.66789-15.031193 34.759633-11.273394 12.212844-24.425688 13.152294h-3.757798q-14.091743 0-25.365138-10.333945L428.388991 583.398165 93.005505 841.746789l258.348623-335.383486-124.007339-122.128441q-12.212844-12.212844-10.333945-28.183486 0.93945-14.091743 13.152294-25.365137 14.091743-13.152294 34.759633-15.031193l92.066055-5.636697q34.759633-1.878899 62.003669-24.425688L606.884404 124.946789q9.394495-7.515596 9.394495-19.72844v-54.488074q-1.878899-31.941284 21.60734-45.093578 9.394495-5.636697 21.607339-5.636697z" p-id="4328"></path></svg>