<svg class="icon" style="width: 1em;height: 1em;vertical-align: middle;fill: currentColor;overflow: hidden;" viewBox="0 0 1024 1024" version="1.1" xmlns="http://www.w3.org/2000/svg" p-id="2231"><path d="M860.16 747.52a101.1712 101.1712 0 0 0-50.3808 13.4144L654.5408 650.8544a153.6 153.6 0 0 0-84.8896-199.168l22.1184-176.8448a112.64 112.64 0 1 0-61.44-6.8608L509.2352 440.32a153.6 153.6 0 0 0-136.4992 89.088L256 496.0256a102.4 102.4 0 1 0-15.1552 59.5968L358.4 589.4144V593.92a152.4736 152.4736 0 0 0 26.112 85.504L328.8064 727.04A102.4 102.4 0 1 0 358.4 798.72a97.4848 97.4848 0 0 0-1.3312-15.4624l71.68-60.6208a152.8832 152.8832 0 0 0 192.2048-20.48L768 806.2976A102.4 102.4 0 1 0 860.16 747.52zM153.6 542.72a40.96 40.96 0 1 1 40.96-40.96 40.96 40.96 0 0 1-40.96 40.96z m102.4 296.96a40.96 40.96 0 1 1 40.96-40.96 40.96 40.96 0 0 1-40.96 40.96z m317.44-727.04a51.2 51.2 0 1 1-51.2 51.2 51.2 51.2 0 0 1 51.2-51.2z m-61.44 573.44a92.16 92.16 0 1 1 92.16-92.16 92.16 92.16 0 0 1-92.16 92.16z m348.16 204.8a40.96 40.96 0 1 1 40.96-40.96 40.96 40.96 0 0 1-40.96 40.96z" p-id="2232"></path></svg>