<svg class="icon" style="width: 1em;height: 1em;vertical-align: middle;fill: currentColor;overflow: hidden;" viewBox="0 0 1024 1024" version="1.1" xmlns="http://www.w3.org/2000/svg" p-id="7894"><path d="M852.218915 478.579894c3.408876 0 6.817751 0 10.226627-3.408875l153.399405-102.26627c6.817751-3.408876 6.817751-10.226627 6.817751-17.044378l-34.088757-238.621297c0-6.817751-10.226627-13.635503-20.453253-13.635502-6.817751 0-13.635503 10.226627-13.635503 20.453254l34.088756 228.394669-139.763902 92.039643-201.123664-30.679881 105.675146-40.906508c3.408876 0 6.817751-3.408876 10.226627-6.817751l85.221891-170.443783c3.408876-6.817751 3.408876-10.226627 0-17.044379l-102.266269-170.443783c-3.408876-6.817751-13.635503-10.226627-23.86213-6.817751-6.817751 3.408876-10.226627 13.635503-6.817751 23.86213l98.857394 163.626031-78.40414 156.808281-129.537275 47.724259c-3.408876-6.817751-6.817751-10.226627-10.226627-17.044378 10.226627-20.453254 6.817751-44.315384-3.408876-64.768638 0-3.408876-3.408876-3.408876-3.408876-3.408876h3.408876c20.453254-10.226627 54.542011-27.271005 54.54201-68.177513 0-51.133135-68.177513-95.448518-74.995264-98.857394-6.817751-3.408876-17.044378-3.408876-23.86213 6.817751-3.408876 6.817751-3.408876 17.044378 6.817752 23.86213 17.044378 10.226627 57.950886 44.315384 57.950886 68.177513 0 17.044378-17.044378 27.271005-37.497632 40.906508-3.408876 3.408876-10.226627 3.408876-13.635503 6.817751-17.044378-6.817751-34.088757-13.635503-51.133135-13.635502-20.453254 0-40.906508 6.817751-57.950886 20.453254-3.408876-3.408876-10.226627-6.817751-13.635503-10.226627-17.044378-10.226627-30.679881-20.453254-30.679881-44.315384 0-23.86213 37.497632-54.542011 61.359762-71.586389 6.817751-3.408876 10.226627-17.044378 6.817751-23.862129-3.408876-6.817751-17.044378-10.226627-23.862129-6.817752-10.226627 6.817751-78.40414 51.133135-78.40414 102.26627 0 40.906508 27.271005 57.950886 44.315383 71.586389 3.408876 3.408876 6.817751 3.408876 10.226627 6.817751-10.226627 17.044378-10.226627 40.906508-3.408875 61.359762-3.408876 3.408876-3.408876 6.817751-6.817752 10.226627l-132.946151-44.315383-78.40414-156.808281L306.798809 25.199432c3.408876-6.817751 0-17.044378-6.817751-20.453254-10.226627-6.817751-20.453254-3.408876-23.86213 3.408875l-102.266269 170.443783c-3.408876 6.817751-3.408876 13.635503 0 17.044379l85.221891 170.443783 10.226627 10.226627 119.310648 40.906507-214.759166 27.271006L34.088757 352.451495l34.088756-262.483426c0-10.226627-6.817751-20.453254-13.635502-20.453254-10.226627 0-20.453254 6.817751-20.453254 13.635503l-34.088757 272.710053c0 6.817751 3.408876 13.635503 6.817751 17.044378l153.399405 102.26627c3.408876 3.408876 6.817751 3.408876 10.226627 3.408875h3.408876l177.261534-23.862129-204.53254 92.039643c-3.408876 0-3.408876 3.408876-6.817751 6.817751l-102.26627 136.355026c-3.408876 3.408876-3.408876 6.817751-3.408875 10.226627v170.443783c0 10.226627 6.817751 17.044378 17.044378 17.044379s17.044378-6.817751 17.044378-17.044379v-163.626031l95.448519-129.537275 238.621296-109.084022-194.305913 187.488162s-3.408876 6.817751-3.408875 10.226627v204.532539c0 3.408876 0 6.817751 3.408875 10.226627l102.26627 136.355027c3.408876 3.408876 6.817751 6.817751 13.635503 6.817751 3.408876 0 6.817751 0 10.226627-3.408876 6.817751-6.817751 10.226627-17.044378 3.408875-23.862129L238.621296 863.782844v-190.897037L334.069815 580.846164c-17.044378 34.088757-27.271005 74.995265-27.271006 119.310648 0 64.768638 34.088757 139.763902 78.404141 190.897037-10.226627 17.044378-13.635503 34.088757-10.226627 51.133135 6.817751 30.679881 37.497632 47.724259 40.906508 47.724259h6.817751c6.817751 0 13.635503-3.408876 17.044378-10.226627 3.408876-6.817751 0-17.044378-6.817751-23.862129-6.817751-3.408876-20.453254-10.226627-23.86213-23.86213 0-6.817751 0-10.226627 3.408876-17.044378 30.679881 23.86213 64.768638 40.906508 98.857394 40.906508s68.177513-17.044378 98.857394-40.906508c3.408876 10.226627 3.408876 17.044378 3.408876 23.862129-3.408876 10.226627-17.044378 13.635503-17.044378 13.635503-10.226627 3.408876-13.635503 10.226627-13.635503 20.453254 3.408876 6.817751 10.226627 13.635503 17.044378 13.635503h3.408876c3.408876 0 30.679881-6.817751 40.906508-34.088757 6.817751-17.044378 3.408876-37.497632-6.817752-61.359762 47.724259-51.133135 81.813016-126.128399 81.813016-190.897037 0-44.315384-10.226627-85.221892-27.271005-119.310648l95.448519 92.039643v190.897037l-98.857395 132.946151c-6.817751 6.817751-3.408876 17.044378 3.408876 23.862129 3.408876 3.408876 6.817751 3.408876 10.226627 3.408876 6.817751 0 10.226627-3.408876 13.635503-6.817751l102.266269-136.355027c3.408876-3.408876 3.408876-6.817751 3.408876-10.226627v-204.532539c0-3.408876-3.408876-10.226627-6.817751-13.635503l-194.305913-187.488161 238.621296 109.084021 95.448519 129.537275v163.626032c0 10.226627 6.817751 17.044378 17.044378 17.044378s17.044378-6.817751 17.044378-17.044378v-170.443783c0-3.408876 0-6.817751-3.408875-10.226627l-102.26627-136.355027-6.817751-6.817751-207.941416-95.448519 184.079286 30.679881z m-446.562711 34.088757l27.271005-27.271005c20.453254 17.044378 47.724259 27.271005 74.995264 27.271005s57.950886-10.226627 74.995265-27.271005l27.271005 27.271005c-54.542011 40.906508-143.172778 40.906508-204.532539 0z" fill="" p-id="7895"></path></svg>