<svg data-v-58697b5c="" xmlns="http://www.w3.org/2000/svg" viewBox="0 0 1024 1024"><path fill="currentColor" d="M224 160a64 64 0 0 0-64 64v576a64 64 0 0 0 64 64h576a64 64 0 0 0 64-64V224a64 64 0 0 0-64-64zm0-64h576a128 128 0 0 1 128 128v576a128 128 0 0 1-128 128H224A128 128 0 0 1 96 800V224A128 128 0 0 1 224 96"></path><path fill="currentColor" d="M384 416a64 64 0 1 0 0-128 64 64 0 0 0 0 128m0 64a128 128 0 1 1 0-256 128 128 0 0 1 0 256"></path><path fill="currentColor" d="M480 320h256q32 0 32 32t-32 32H480q-32 0-32-32t32-32m160 416a64 64 0 1 0 0-128 64 64 0 0 0 0 128m0 64a128 128 0 1 1 0-256 128 128 0 0 1 0 256"></path><path fill="currentColor" d="M288 640h256q32 0 32 32t-32 32H288q-32 0-32-32t32-32"></path></svg>