<?xml version="1.0" standalone="no"?><!DOCTYPE svg PUBLIC "-//W3C//DTD SVG 1.1//EN" "http://www.w3.org/Graphics/SVG/1.1/DTD/svg11.dtd"><svg t="1575802859706" class="icon" viewBox="0 0 1024 1024" version="1.1" xmlns="http://www.w3.org/2000/svg" p-id="3102" xmlns:xlink="http://www.w3.org/1999/xlink" width="200" height="200"><defs><style type="text/css"></style></defs><path d="M804.565333 722.304V301.653333a82.218667 82.218667 0 0 0-82.261333-82.261333H301.653333A82.218667 82.218667 0 0 0 219.434667 301.653333v420.608c0 45.482667 36.778667 82.261333 82.261333 82.261334h420.608a82.218667 82.218667 0 0 0 82.261333-82.261334z m-82.261333 0H301.653333V301.653333h420.608v420.608zM41.130667 297.130667A41.130667 41.130667 0 0 0 82.346667 256V82.304H256A41.130667 41.130667 0 1 0 256 0H82.304A82.346667 82.346667 0 0 0 0 82.304V256c0 22.741333 18.389333 41.130667 41.130667 41.130667zM256 941.696H82.304V768A41.130667 41.130667 0 1 0 0 768v173.696A82.346667 82.346667 0 0 0 82.304 1024H256a41.130667 41.130667 0 1 0 0-82.304zM941.696 0H768a41.130667 41.130667 0 1 0 0 82.304h173.696V256A41.130667 41.130667 0 1 0 1024 256V82.304A82.346667 82.346667 0 0 0 941.696 0z m41.173333 726.869333a41.130667 41.130667 0 0 0-41.173333 41.130667v173.696H768A41.130667 41.130667 0 1 0 768 1024h173.696A82.346667 82.346667 0 0 0 1024 941.696V768a41.130667 41.130667 0 0 0-41.130667-41.130667z" fill=""></path></svg>