<?xml version="1.0" standalone="no"?><!DOCTYPE svg PUBLIC "-//W3C//DTD SVG 1.1//EN" "http://www.w3.org/Graphics/SVG/1.1/DTD/svg11.dtd"><svg t="1575802859706" class="icon" viewBox="0 0 1024 1024" version="1.1" xmlns="http://www.w3.org/2000/svg" p-id="3102" xmlns:xlink="http://www.w3.org/1999/xlink" width="200" height="200"><defs><style type="text/css"></style></defs><path d="M482.381322 46.986148C285.027825 45.516793 99.881462 195.129056 58.357936 387.863766c-40.049424 169.298113 31.657583 358.143018 175.274725 456.840886 139.39939 99.841175 338.070371 107.665871 483.076662 14.937496 145.807886-89.288963 231.670252-267.591624 204.463449-437.2566-24.913546-175.877939-165.408308-328.842288-339.873843-364.994314-32.436398-7.23667-65.691478-10.625299-98.917607-10.405086z m10.479123 137.577409c145.018155-0.459411 278.228313 119.558347 293.009192 263.931524 18.867168 137.995055-70.099544 282.344976-203.857862 323.832432-130.550511 44.426641-287.972759-12.269307-355.984072-133.366301-75.254152-125.637947-43.235875-304.675285 76.013984-391.902595 54.079015-41.726653 122.542145-64.06598 190.818758-62.49506z" fill=""></path></svg>