<?xml version="1.0" standalone="no"?><!DOCTYPE svg PUBLIC "-//W3C//DTD SVG 1.1//EN" "http://www.w3.org/Graphics/SVG/1.1/DTD/svg11.dtd"><svg t="1575802859706" class="icon" viewBox="0 0 1024 1024" version="1.1" xmlns="http://www.w3.org/2000/svg" p-id="3102" xmlns:xlink="http://www.w3.org/1999/xlink" width="200" height="200"><defs><style type="text/css"></style></defs><path d="M485.871492 47.174338c-9.168729-0.008066-18.33651 3.392487-25.137616 10.224908L57.381424 460.755494c-13.603161 13.602212-13.540056 36.674443 0.062631 50.276655l403.288872 403.286025c13.603161 13.606956 36.673969 13.66674 50.276655 0l403.352926-403.350079c13.602686-13.601737 13.539581-36.674918-0.064054-50.27713L511.009107 57.399246c-6.801106-6.801106-15.969361-10.217316-25.137615-10.224908z m-0.030841 59.805036l378.943153 378.946-378.943153 378.94173-378.943153-378.94173 378.943153-378.946z m0.020402 174.891c-112.560341 0-204.023684 91.469037-204.023684 204.02748 0 112.558443 91.463343 204.023684 204.023684 204.023685s204.023684-91.465241 204.023685-204.023685c0-112.558918-91.463343-204.02748-204.023685-204.02748z m0 22.62765c100.307533 0 181.402203 81.093246 181.402203 181.39983 0 100.306109-81.09467 181.405524-181.402203 181.405524-100.307058 0-181.401728-81.099415-181.401728-181.405524 0-100.306584 81.09467-181.400305 181.401728-181.400304z" fill=""></path></svg>