<?xml version="1.0" standalone="no"?><!DOCTYPE svg PUBLIC "-//W3C//DTD SVG 1.1//EN" "http://www.w3.org/Graphics/SVG/1.1/DTD/svg11.dtd"><svg t="1575802859706" class="icon" viewBox="0 0 1024 1024" version="1.1" xmlns="http://www.w3.org/2000/svg" p-id="3102" xmlns:xlink="http://www.w3.org/1999/xlink" width="200" height="200"><defs><style type="text/css"></style></defs><path d="M485.871492 47.174338c-9.168729-0.008066-18.33651 3.392487-25.137616 10.224908L57.381424 460.755494c-13.603161 13.602212-13.540056 36.674443 0.062631 50.276655l403.288872 403.286025c13.603161 13.606956 36.673969 13.66674 50.276655 0l403.352926-403.350079c13.602686-13.601737 13.539581-36.674918-0.064054-50.27713L511.009107 57.399246c-6.801106-6.801106-15.969361-10.217316-25.137615-10.224908z m-0.030841 59.805036l378.943153 378.946-378.943153 378.94173-378.943153-378.94173 378.943153-378.946zM344.31891 317.829311c-0.006643 0-4.560641 0.872083-4.564436 0.872083-0.004745 0-3.864114 2.615773-3.866961 2.615773l-14.581525 14.584847c-0.004745 0-2.661797 3.902546-2.663696 3.94857 0 0.004745-0.824161 4.498011-0.823686 4.498011 0 0.004745 0.886317 4.452936 0.88774 4.452935 0 0.004745 2.532741 3.94857 2.535588 3.94857l133.188084 133.184763-133.12403 133.12498v-0.041754c0 0.004745-2.661797 3.947621-2.663696 3.947621 0 0.004745-0.823686 4.499434-0.823686 4.499434 0 0.009489 0.886317 4.452936 0.88774 4.452936 0 0 2.533215 3.901597 2.535588 3.947621l14.582474 14.579627c0.004745 0.004745 3.990798 2.617197 3.994119 2.617197 0.004745 0 4.434431 0.872083 4.438227 0.872083 0.004745 0 4.497536-0.825584 4.500858-0.825584 0.004745 0 3.928642-2.663695 3.931014-2.663696l133.125929-133.128775 133.154871 133.156769c0.004745 0.004745 3.991273 2.617197 3.99412 2.617197 0.004745 0 4.434431 0.872083 4.438226 0.872083 0.004745 0 4.498011-0.827008 4.501807-0.827008 0.004745 0 3.926744-2.661797 3.929116-2.661797l14.582949-14.580577c0.004745-0.004745 2.597743-3.855573 2.600116-3.855573 0-0.004745 0.88774-4.545458 0.88774-4.591007 0-0.004745-0.886791-4.452936-0.888689-4.452936 0 0-2.59632-3.994119-2.599167-3.994119l-133.140163-133.142535 133.141112-133.139214c0.004745 0 2.596794-3.856048 2.599167-3.856048 0-0.004745 0.88774-4.544509 0.88774-4.544509 0-0.009489-0.886317-4.452936-0.887266-4.452935 0-0.004745-2.659899-3.94857-2.662746-3.94857l-14.582949-14.584372c-0.004745 0-3.863639-2.616248-3.86696-2.616248-0.004745 0-4.433957-0.873032-4.437753-0.873032-0.004745 0-4.561116 0.873032-4.564436 0.873032-0.004745 0-3.864588 2.616248-3.866961 2.616248l-133.143484 133.143484-133.203268-133.207538v-0.041754c-0.004745 0-3.927693-2.5242-3.931014-2.5242-0.004745 0-4.431584-0.871608-4.436804-0.872083h-0.000949z" fill=""></path></svg>