<svg class="icon" style="width: 1em;height: 1em;vertical-align: middle;fill: currentColor;overflow: hidden;" viewBox="0 0 1024 1024" version="1.1" xmlns="http://www.w3.org/2000/svg" p-id="7470"><path d="M875.166 118.245c100.653 90.117 155.335 226.557 147.918 360.878q-239.153 1.354-478.482 0-1.236-239.212 0-478.482a456.115 456.115 0 0 1 330.564 117.604z m25.781 113.661c-44.028-71.693-116.074-121.96-193.476-152.332a235.444 235.444 0 0 0-105.538-21.838q-0.412 182.057 0 364.233h364.174c2.295-68.809-30.432-132.614-65.1-190.004z m-0.294 316.673c3.06 94.53-20.366 190.533-72.693 269.878A449.993 449.993 0 1 1 248 171.809c69.868-35.964 149.154-50.444 227.38-48.266 1.001 141.266 0 283.004 0.471 424.565 141.267 0.412 283.064-0.648 424.624 0.47z m-49.031 49.973c-141.856-0.765-283.77 0-425.684-0.353-0.353-141.914 0.353-283.828-0.353-425.684-82.111 12.302-165.517 37.73-229.028 93.354-19.896 20.601-40.732 40.261-60.569 60.921C77.893 404.075 44.99 501.313 49.58 598.258c8.888 71.045 29.43 142.443 71.281 201.54 18.07 29.725 46.442 50.797 69.692 76.107a383.01 383.01 0 0 0 149.39 81.111c50.502 12.184 103.065 25.251 155.04 14.068 89.35-12.596 178.172-50.974 238.622-119.547 72.517-63.805 103.949-160.279 117.722-253.103z" p-id="7471"></path></svg>