<?xml version="1.0" standalone="no"?><!DOCTYPE svg PUBLIC "-//W3C//DTD SVG 1.1//EN" "http://www.w3.org/Graphics/SVG/1.1/DTD/svg11.dtd"><svg t="1577186573535" class="icon" viewBox="0 0 1024 1024" version="1.1" xmlns="http://www.w3.org/2000/svg" p-id="1068" xmlns:xlink="http://www.w3.org/1999/xlink" width="81" height="81"><defs><style type="text/css"></style></defs><path d="M896 832H128V224a32 32 0 0 0-64 0v640a32 32 0 0 0 32 32h800a32 32 0 1 0 0-64zM247.008 640c7.424 0 14.88-2.56 20.96-7.808l179.744-155.84 174.56 155.52a31.968 31.968 0 0 0 44.704-2.08l250.432-269.216a32 32 0 1 0-46.88-43.616l-229.088 246.304-172.128-153.44a32.064 32.064 0 0 0-42.272-0.288l-200.992 174.24A32 32 0 0 0 247.008 640z" p-id="2360"></path></svg>