<svg class="icon" style="width: 1em;height: 1em;vertical-align: middle;fill: currentColor;overflow: hidden;" viewBox="0 0 1024 1024" version="1.1" xmlns="http://www.w3.org/2000/svg" p-id="5417"><path d="M303.07 360.36v303.29h-34.81V402.78c-18.71 19.28-42.51 33.16-71.36 41.64v-34.81c13.27-3.7 27.41-9.92 42.47-18.71 13.88-8.49 26.02-18.71 36.55-30.59h27.15v0.05z m180.89-5.88c28.07 0 51.13 8.05 69.27 24.19 18.1 16.41 27.15 37.81 27.15 64.14 0 26.07-9.88 49.82-29.72 71.36-11.62 12.18-32.55 28.46-62.88 48.82-38.51 25.8-60.57 49-66.23 69.66h159.26v31.02H378.65c0-28.02 10.01-53.09 30.16-75.19 13.01-14.71 34.94-32.72 65.83-53.96 24.06-17.28 39.9-29.85 47.56-37.77 15.58-16.97 23.37-35.12 23.37-54.39 0-18.41-5.53-32.72-16.54-42.9-11.09-10.18-26.54-15.27-46.34-15.27-21.24 0-37.25 7.05-48 21.23-12.18 13.88-18.41 34.11-18.71 60.74h-34.81c0-33.72 9.49-60.74 28.46-81.15 18.72-20.35 43.52-30.53 74.33-30.53z m239.93 0c29.46 0 52.96 7.35 70.49 22.06 17.58 15.01 26.37 35.12 26.37 60.31 0 34.29-16.58 56.92-49.74 67.97 18.14 5.66 31.76 14.32 40.82 25.89 10.18 11.92 15.27 26.76 15.27 44.6 0 27.5-9.62 50-28.89 67.53-19.54 17.84-44.99 26.76-76.45 26.76-28.28 0-51.78-7.35-70.49-22.06-21.54-17.84-33.55-43.77-36.12-77.71h35.25c0.87 23.76 8.79 41.9 23.8 54.35 13.05 10.44 28.89 15.71 47.56 15.71 21.54 0 38.94-6.22 52.22-18.71 12.18-12.19 18.28-26.98 18.28-44.56 0-18.15-5.92-32.29-17.84-42.47-11.57-9.92-28.02-14.88-49.26-14.88h-24.63v-27.28h23.37c20.1 0 35.55-4.53 46.3-13.58 10.75-9.36 16.1-22.54 16.1-39.51 0-16.71-5.22-29.89-15.67-39.51-10.79-9.92-26.19-14.84-46.3-14.84-20.67 0-36.55 5.35-47.6 16.1-11.57 10.79-18.54 26.5-20.8 47.17h-34.37c2.52-29.16 13.27-52.09 32.24-68.8 17.58-16.45 40.9-24.63 70.1-24.63v0.09z m0 0" p-id="5418"></path><path d="M794.17 147.91c45.16 0.2 81.71 36.76 81.92 81.92v564.34c-0.2 45.16-36.76 81.71-81.92 81.92H229.83c-45.16-0.2-81.71-36.76-81.92-81.92V229.83c0.2-45.16 36.76-81.71 81.92-81.92h564.34m0-45.51H229.83c-70.09 0-127.43 57.34-127.43 127.43v564.34c0 70.08 57.34 127.43 127.43 127.43h564.34c70.08 0 127.43-57.34 127.43-127.43V229.83c0-70.09-57.34-127.43-127.43-127.43z m0 0" p-id="5419"></path></svg>