<?xml version="1.0" standalone="no"?><!DOCTYPE svg PUBLIC "-//W3C//DTD SVG 1.1//EN" "http://www.w3.org/Graphics/SVG/1.1/DTD/svg11.dtd"><svg t="1577186573535" class="icon" viewBox="0 0 1024 1024" version="1.1" xmlns="http://www.w3.org/2000/svg" p-id="1068" xmlns:xlink="http://www.w3.org/1999/xlink" width="81" height="81"><defs><style type="text/css"></style></defs><path d="M683.52 798.515H340.992L234.496 465.101l278.016-206.08L790.528 465.1 683.52 798.515z m-324.096-26.112h305.664l94.72-297.37L512 291.38 264.192 475.034l95.232 297.37z" p-id="3889"></path><path d="M827.904 1023.898H196.608L0 409.293 512 29.49l512 379.802-196.096 614.605z m-609.792-30.772H806.4l182.784-572.364L512 67.072 34.816 420.762l183.296 572.364z" p-id="3890"></path><path d="M499.2 39.424h25.6v487.27h-25.6z" p-id="3891"></path><path d="M1011.251 398.694l5.632 25.447-502.016 115.097-5.632-25.446z" p-id="3892"></path><path d="M522.65 519.475l305.766 481.28-21.504 14.234-305.715-481.331z" p-id="3893"></path><path d="M500.94 519.475l21.505 14.183-308.839 486.144-21.504-14.132z" p-id="3894"></path><path d="M19.2 400.18l495.514 113.612-5.632 25.446L13.568 425.626z" p-id="3895"></path></svg>