<?xml version="1.0" standalone="no"?><!DOCTYPE svg PUBLIC "-//W3C//DTD SVG 1.1//EN" "http://www.w3.org/Graphics/SVG/1.1/DTD/svg11.dtd"><svg t="1577186573535" class="icon" viewBox="0 0 1024 1024" version="1.1" xmlns="http://www.w3.org/2000/svg" p-id="1068" xmlns:xlink="http://www.w3.org/1999/xlink" width="81" height="81"><defs><style type="text/css"></style></defs><path d="M801.8 436.7H216.5l90.9 142.5h401.1l93.3-142.5z m47.9-67.4l101.1-154.5c0.1-0.2 0.3-0.4 0.4-0.6 1.3-1.7 2.5-3.5 3.6-5.5l0.3-0.6 1.8-2.7c0.4-0.6 0.7-1.2 1-1.9 6.3-18-1.4-38.3-17.5-45.8-4.1-2-8.5-2.9-13-2.8H95.2c-17.3 0.6-31.3 16.3-31.3 35.7 0 4.9 3.7 17.6 10.5 26.4 2.1 3.1 7.5 11.2 7.9 11.9l86.9 136c1.7 2.7 4.7 4.3 7.9 4.3l672.6 0.1zM353 654.6l120.3 188.6c1.5 4.1 3.7 7.8 6.3 10.9 3.3 5.1 8 9.5 13.7 12.1 16.4 7.7 35.4-0.8 42.2-19l126.1-192.6H353z" p-id="1729"></path></svg>