<?xml version="1.0" standalone="no"?><!DOCTYPE svg PUBLIC "-//W3C//DTD SVG 1.1//EN" "http://www.w3.org/Graphics/SVG/1.1/DTD/svg11.dtd"><svg t="1577186573535" class="icon" viewBox="0 0 1024 1024" version="1.1" xmlns="http://www.w3.org/2000/svg" p-id="1068" xmlns:xlink="http://www.w3.org/1999/xlink" width="81" height="81"><defs><style type="text/css"></style></defs><path d="M453.228 781.672H170.319V409.18h650.457c11.686 0 21.16-9.473 21.16-21.16V206.29c0-11.686-9.474-21.16-21.16-21.16H660.945v-35.972c0-11.686-9.474-21.16-21.16-21.16-11.688 0-21.16 9.474-21.16 21.16v35.972H356.247v-35.972c0-11.686-9.473-21.16-21.16-21.16s-21.16 9.474-21.16 21.16v35.972H149.16c-11.687 0-21.16 9.474-21.16 21.16V790.44c0 18.5 14.822 33.55 33.04 33.55H453.23c11.686 0 21.16-9.472 21.16-21.16 0-11.686-9.475-21.16-21.161-21.16zM170.319 227.45h143.609v35.971c0 11.687 9.473 21.16 21.16 21.16s21.159-9.472 21.159-21.16V227.45h262.377v35.971c0 11.687 9.472 21.16 21.16 21.16 11.686 0 21.16-9.472 21.16-21.16V227.45h138.672v139.412H170.319V227.45zM690.5 483.1c-113.837 0-206.45 92.613-206.45 206.453C484.05 803.388 576.663 896 690.5 896s206.45-92.613 206.45-206.447c0-113.84-92.611-206.453-206.45-206.453z m0 370.58c-90.5 0-164.13-73.628-164.13-164.131s73.628-164.132 164.13-164.132c90.503 0 164.133 73.628 164.133 164.132S781.002 853.68 690.5 853.68zM390.104 640.816H246.218c-11.687 0-21.16 9.472-21.16 21.16 0 11.685 9.473 21.158 21.16 21.158h143.885c11.686 0 21.16-9.473 21.16-21.158-0.002-11.688-9.475-21.16-21.16-21.16z m0-119.489H246.218c-11.687 0-21.16 9.473-21.16 21.158 0 11.688 9.473 21.16 21.16 21.16h143.885c11.686 0 21.16-9.472 21.16-21.16-0.002-11.683-9.475-21.158-21.16-21.158z m413.071 147.067H711.66V617.61c0-11.687-9.472-21.16-21.159-21.16s-21.16 9.473-21.16 21.16v71.943c0 11.685 9.474 21.158 21.16 21.158h112.673c11.687 0 21.16-9.473 21.16-21.158 0.001-11.688-9.473-21.16-21.16-21.16z" p-id="6844"></path></svg>