<?xml version="1.0" standalone="no"?><!DOCTYPE svg PUBLIC "-//W3C//DTD SVG 1.1//EN" "http://www.w3.org/Graphics/SVG/1.1/DTD/svg11.dtd"><svg t="1577186573535" class="icon" viewBox="0 0 1024 1024" version="1.1" xmlns="http://www.w3.org/2000/svg" p-id="1068" xmlns:xlink="http://www.w3.org/1999/xlink" width="81" height="81"><defs><style type="text/css"></style></defs><path d="M490.14525 71.694879c-143.41534-3.27765-270.436292 120.466676-267.158642 262.238586 0 52.448536 36.878932 138.494261 91.785449 226.182392 55.726186 87.685062 96.698343 145.869229 142.591579 207.332069 8.194636 10.652618 18.851347 16.388249 32.781614 16.388249 13.110599 0 25.402553-6.5553 32.777521-16.388249 45.893236-61.46284 87.689155-119.647007 142.595672-207.332069 54.902424-87.688131 91.781356-173.733856 91.781356-226.182392C760.461815 192.161554 635.079176 68.417229 490.14525 71.694879L490.14525 71.694879 490.14525 71.694879 490.14525 71.694879 490.14525 71.694879zM508.992503 705.985086c-4.097318 5.736655-11.472286 9.014304-18.847254 9.014304-6.5553 0-14.754029-2.459005-18.031679-9.014304C349.188914 538.806529 272.157493 396.21495 272.157493 333.933465c0-59.003835 21.309328-109.813035 63.919798-151.60486 42.615587-41.795918 94.244454-63.101153 154.067958-63.101153s111.452371 21.305235 154.063865 63.101153c43.434232 41.791825 64.739467 92.601025 64.739467 151.60486 0 31.961946-18.027585 80.310094-54.086849 146.69299C619.625206 547.005258 570.45432 621.578698 508.992503 705.985086L508.992503 705.985086 508.992503 705.985086 508.992503 705.985086 508.992503 705.985086zM488.505913 909.922848c-93.424786 0-180.289156-8.194636-241.751996-24.582885-32.781614-8.194636-58.184167-18.027585-76.211752-30.323633-22.128997-13.930267-34.420951-31.958876-34.420951-51.628868 0-25.402553 9.832949-44.249807 30.319539-58.181097 22.948665-14.754029 59.823504-22.947641 110.632703-23.76731l0.819668 35.239596c-43.430138 0-74.573439 7.374968-91.781356 18.027585-9.833973 6.556323-14.749936 16.389272-14.749936 28.681226 0 13.934361 26.221198 32.781614 84.406388 48.351218 61.461817 15.573697 138.494261 23.883967 232.737692 23.883967 90.143043 0 173.73488-9.014304 231.914954-23.76424 56.545854-13.934361 82.772168-32.781614 82.772168-48.351218 0-6.5553-3.27765-13.110599-10.652618-20.48966-8.198729-8.194636-34.420951-29.500894-90.966805-29.500894l-2.457981 0-0.819668-35.239596c25.406646 0 49.170886 3.27765 69.656453 10.656711 20.490683 7.374968 36.878932 17.207917 49.170886 29.499871 13.930267 13.930267 21.305235 28.684296 21.305235 45.073568 0 19.666922-11.471262 37.694507-33.597189 51.628868-18.027585 12.291954-43.434232 22.124903-76.211752 30.319539C667.856697 901.728212 582.746274 909.922848 488.505913 909.922848L488.505913 909.922848 488.505913 909.922848 488.505913 909.922848 488.505913 909.922848zM295.105135 737.948055c0.819668 9.832949-6.559393 18.027585-16.392342 18.847254l-26.222221 1.638313c-9.833973 0-18.027585-7.374968-18.027585-16.388249-0.819668-9.833973 6.5553-18.032702 16.388249-18.851347l26.222221-1.639337C286.08776 721.55469 295.105135 728.933751 295.105135 737.948055L295.105135 737.948055 295.105135 737.948055 295.105135 737.948055zM740.7908 737.948055c-0.818645 9.832949-9.013281 17.207917-18.027585 16.388249l-26.222221-0.819668c-9.832949 0-17.207917-8.193613-17.207917-18.027585 0.819668-9.832949 8.194636-17.21201 18.027585-16.392342l26.222221 0.819668C733.415832 719.916377 740.7908 728.114083 740.7908 737.948055L740.7908 737.948055 740.7908 737.948055 740.7908 737.948055zM418.377716 344.118432c0-38.045501 30.791284-68.836785 68.841901-68.836785 38.045501 0 68.836785 30.791284 68.836785 68.836785 0 38.050618-30.791284 68.837808-68.836785 68.837808C449.168999 412.95624 418.377716 382.169049 418.377716 344.118432L418.377716 344.118432 418.377716 344.118432zM418.377716 344.118432" p-id="5905"></path></svg>