<?xml version="1.0" standalone="no"?><!DOCTYPE svg PUBLIC "-//W3C//DTD SVG 1.1//EN" "http://www.w3.org/Graphics/SVG/1.1/DTD/svg11.dtd"><svg t="1577186573535" class="icon" viewBox="0 0 1024 1024" version="1.1" xmlns="http://www.w3.org/2000/svg" p-id="1068" xmlns:xlink="http://www.w3.org/1999/xlink" width="81" height="81"><defs><style type="text/css"></style></defs><path d="M536.217 90.69c-168.027 0-302.524 134.497-302.524 302.524 0 120.961 87.056 215.095 181.191 336.055 32.786 45.949 58.866 91.9 92.023 150.268 1.74 3.105 3.974 5.961 6.582 8.321 5.588 5.091 12.047 9.438 22.726 9.438v0c11.425 0 18.007-4.844 23.844-10.432 1.986-1.862 3.726-4.098 5.217-6.334 33.158-52.409 59.362-98.481 92.273-144.556 94.135-127.666 181.191-221.801 181.191-342.761 0-168.027-134.497-302.524-302.524-302.524v0zM536.217 494.055c-53.774 0-100.842-40.362-100.842-100.842s40.362-100.842 100.842-100.842c53.774 0 100.842 40.362 100.842 100.842 0 53.774-40.362 100.842-100.842 100.842v0zM536.217 770.624c-140.334 0-254.091 53.525-254.091 119.47s113.757 119.47 254.091 119.47 254.091-53.525 254.091-119.47-113.757-119.47-254.091-119.47zM536.217 938.651c-105.561 0-191.003-37.505-191.003-78.735s85.566-74.886 191.003-74.886 191.003 33.532 191.003 74.886-85.566 78.735-191.003 78.735z" p-id="7384"></path></svg>