<?xml version="1.0" standalone="no"?><!DOCTYPE svg PUBLIC "-//W3C//DTD SVG 1.1//EN" "http://www.w3.org/Graphics/SVG/1.1/DTD/svg11.dtd"><svg t="1577186573535" class="icon" viewBox="0 0 1024 1024" version="1.1" xmlns="http://www.w3.org/2000/svg" p-id="1068" xmlns:xlink="http://www.w3.org/1999/xlink" width="81" height="81"><defs><style type="text/css"></style></defs><path d="M512 354.461538c97.713231 0 177.230769-79.517538 177.230769-177.230769s-79.517538-177.230769-177.230769-177.230769-177.230769 79.517538-177.230769 177.230769 79.517538 177.230769 177.230769 177.230769z m0-315.076923c76.012308 0 137.846154 61.833846 137.846154 137.846154s-61.833846 137.846154-137.846154 137.846154-137.846154-61.833846-137.846154-137.846154 61.833846-137.846154 137.846154-137.846154z m285.538462 671.507693v-61.085539c0-76.012308-61.833846-137.846154-137.846154-137.846154h-128v-98.461538h-39.384616v98.461538h-128c-76.012308 0-137.846154 61.833846-137.846154 137.846154v61.085539c-77.508923 9.846154-137.846154 75.382154-137.846153 155.529846 0 86.921846 70.695385 157.538462 157.538461 157.538461s157.538462-70.616615 157.538462-157.538461c0-80.147692-60.337231-145.683692-137.846154-155.529846v-61.085539c0-54.232615 44.150154-98.461538 98.461538-98.461538h295.384616c54.311385 0 98.461538 44.228923 98.461538 98.461538v61.085539c-77.469538 9.846154-137.846154 75.382154-137.846154 155.529846 0 86.921846 70.695385 157.538462 157.538462 157.538461a157.617231 157.617231 0 0 0 157.499077-157.538461c0-80.147692-60.258462-145.683692-137.806769-155.529846z m-433.23077 155.529846c0 65.142154-53.011692 118.153846-118.153846 118.153846s-118.153846-53.011692-118.153846-118.153846 53.011692-118.153846 118.153846-118.153846 118.153846 53.011692 118.153846 118.153846z m413.538462 118.153846c-65.142154 0-118.153846-53.011692-118.153846-118.153846s53.011692-118.153846 118.153846-118.153846 118.114462 53.011692 118.114461 118.153846-52.972308 118.153846-118.114461 118.153846z" p-id="18267"></path></svg>