<?xml version="1.0" standalone="no"?><!DOCTYPE svg PUBLIC "-//W3C//DTD SVG 1.1//EN" "http://www.w3.org/Graphics/SVG/1.1/DTD/svg11.dtd"><svg t="1577186573535" class="icon" viewBox="0 0 1024 1024" version="1.1" xmlns="http://www.w3.org/2000/svg" p-id="1068" xmlns:xlink="http://www.w3.org/1999/xlink" width="81" height="81"><defs><style type="text/css"></style></defs><path d="M388.29 350.41q0 43.8-23.08 79.31-23.09 35.51-66.89 55.64-43.8 20.13-104.17 20.13-72.22 0-119.57-27.23-33.15-20.12-53.86-52.68T0.01 361.06q0-17.75 12.43-30.18t31.37-12.43q16.57 0 27.23 9.47t17.77 29.59q9.47 23.68 20.71 39.07 11.25 15.39 30.78 25.45 19.53 10.06 51.5 10.06 43.8 0 71.03-20.13 27.22-20.13 27.22-50.9 0-24.86-14.79-39.66-14.8-14.79-38.47-23.08-23.67-8.29-62.74-17.76-52.09-11.83-87.61-28.4-35.52-16.58-56.23-44.99Q9.5 178.76 9.5 137.91q0-40.84 21.9-72.22 21.9-31.37 63.33-48.53T192.99 0q43.8 0 76.95 11.24 33.15 11.24 55.05 29.59t31.96 39.07q10.06 20.72 10.06 39.06 0 18.35-12.43 32.55-12.43 14.21-30.78 14.21t-26.63-8.88q-8.28-8.88-18.94-27.81-13.03-27.23-31.97-42.62-18.94-15.39-60.37-15.39-37.88 0-61.56 16.58t-23.68 40.24q0 14.21 8.29 24.87t21.91 18.35q13.62 7.69 29 12.43 15.38 4.73 46.16 13.01 41.44 9.47 75.17 21.31 33.74 11.84 56.82 28.42 23.08 16.57 36.7 42.02 13.62 25.45 13.62 62.15z m68.66-207.17h9.47V88.79q0-22.5 1.19-34.93t6.51-21.3q5.33-8.88 15.39-14.8t23.08-5.92q16.58 0 30.78 13.02 9.47 8.29 11.84 20.72 2.37 12.43 2.37 36.1v61.56h33.14q18.94 0 29.6 9.47 10.65 9.47 10.65 23.68 0 17.76-14.21 25.46-14.21 7.69-41.43 7.69h-17.75v166.91q0 21.31 1.77 32.56 1.77 11.25 8.28 18.35 6.51 7.1 20.72 7.1 7.1 0 21.3-2.96 14.21-2.96 21.31-2.96 10.66 0 19.53 8.88 8.88 8.88 8.88 21.9 0 22.49-23.68 34.33-23.67 11.84-67.47 11.84t-65.7-14.8q-21.9-14.8-29-39.66-7.1-24.86-7.1-67.47V209.54h-11.84q-18.94 0-29.59-9.47-10.65-9.47-10.65-23.68 0-14.2 10.65-23.67 10.65-9.47 31.96-9.47z m326.74 230.85v75.76q0 27.23-13.03 41.43-13.02 14.21-33.15 14.21t-32.55-14.21q-12.43-14.2-12.43-41.43V196.51q0-61.56 43.8-61.56 23.68 0 33.15 14.21 3.55 5.92 4.74 13.02 1.18 4.74 1.18 17.76v7.1q9.47-14.2 30.78-31.96l7.1-5.92q17.76-14.21 46.76-14.21 29 0 55.64 14.8t26.64 38.48q0 16.57-11.84 27.23t-24.86 10.66q-4.74 0-23.68-6.51-18.94-6.51-34.33-6.51-20.12 0-32.55 10.66-12.43 10.66-19.53 31.37-7.11 20.71-9.47 49.72-2.37 29-2.37 69.25z m183.49 30.77q-23.68 0-40.25 16.57t-16.57 40.25q0 23.68 16.57 40.25 16.58 16.57 40.25 16.57 23.68 0 40.25-16.57 16.58-16.57 16.58-40.25t-16.58-40.25q-16.57-16.57-40.25-16.57z" fill="#666666" p-id="5940"></path></svg>