<?xml version="1.0" standalone="no"?><!DOCTYPE svg PUBLIC "-//W3C//DTD SVG 1.1//EN" "http://www.w3.org/Graphics/SVG/1.1/DTD/svg11.dtd"><svg t="1577186573535" class="icon" viewBox="0 0 1024 1024" version="1.1" xmlns="http://www.w3.org/2000/svg" p-id="1068" xmlns:xlink="http://www.w3.org/1999/xlink" width="81" height="81"><defs><style type="text/css"></style></defs><path d="M875.616 515.904a4.032 4.032 0 0 0 5.184-2.4 3.2 3.2 0 0 0 0.192-1.408v-58.304a3.872 3.872 0 0 0-2.784-3.776c-6.016-1.824-17.216-3.008-27.2-3.008-32.896 0-61.696 16.704-73.504 41.184v-28.576a8 8 0 0 0-8-8h-52.48a8 8 0 0 0-8 8v269.376c0 4.416 3.584 8 8 8h54.784a8 8 0 0 0 8-8v-156.288c0-36.192 26.08-60.192 65.088-60.192 10.4 0.096 26.592 1.792 30.72 3.392zM338.56 475.392l-54.72-12.576c-61.184-14.208-87.68-34.816-87.68-70.72 0-44.608 39.104-73.504 96.896-73.504 52.8 0 91.424 26.496 99.904 68.896h70.016c-7.104-75.872-75.392-128.48-169.6-128.48-103.296 0-171.008 55.488-171.008 139.008 0 68.576 38.592 109.472 122.208 128.48l61.6 14.304c63.584 14.912 91.584 37.12 91.584 75.104 0 44.096-43.52 75.2-102.496 75.2-60.608 0-104.48-27.2-112.8-70.496H111.04c7.2 79.904 75.584 130.4 179.104 130.4 112.192 0 180.896-55.808 180.896-145.696 0-70.208-38.624-108.512-132.416-129.92z m502.4 253.6a36 36 0 1 0 72 0 36 36 0 0 0-72 0z m-188-271.2H601.6v-61.792a8 8 0 0 0-8-8h-54.72a8 8 0 0 0-8 8v61.792H495.04a8 8 0 0 0-8 8v42.304c0 4.416 3.584 8 8 8h35.904v147.52c0 56.192 27.392 79.36 93.088 79.36 11.712 0 23.616-1.184 33.792-3.072 1.92-0.32 3.2-2.016 3.2-3.904v-49.28a4 4 0 0 0-4-4.032h-0.384a161.6 161.6 0 0 1-20.896 1.28c-24.096 0.032-34.112-10.24-34.112-35.584v-132.288h51.392a8 8 0 0 0 8-8v-42.304a8 8 0 0 0-8-8z" fill="#2D3040" p-id="6129"></path></svg>