<?xml version="1.0" standalone="no"?><!DOCTYPE svg PUBLIC "-//W3C//DTD SVG 1.1//EN" "http://www.w3.org/Graphics/SVG/1.1/DTD/svg11.dtd"><svg t="1577186573535" class="icon" viewBox="0 0 1024 1024" version="1.1" xmlns="http://www.w3.org/2000/svg" p-id="1068" xmlns:xlink="http://www.w3.org/1999/xlink" width="81" height="81"><defs><style type="text/css"></style></defs><path d="M896 551.68a35.2 35.2 0 0 0-35.2 35.2v215.04H192V586.88a35.2 35.2 0 0 0-70.4 0v250.24a35.2 35.2 0 0 0 35.2 35.2H896a35.2 35.2 0 0 0 35.2-35.2V586.88a35.2 35.2 0 0 0-35.2-35.2zM533.12 143.36a161.92 161.92 0 0 0-161.28 161.28 35.2 35.2 0 0 0 70.4 0 90.88 90.88 0 1 1 182.4 0c0 18.56-25.6 40.32-49.92 64a164.48 164.48 0 0 0-76.8 115.2 35.2 35.2 0 1 0 70.4 0c0-19.84 26.24-42.88 51.84-64a160.64 160.64 0 0 0 74.88-114.56 161.92 161.92 0 0 0-161.92-161.92zM533.12 600.96m-46.08 0a46.08 46.08 0 1 0 92.16 0 46.08 46.08 0 1 0-92.16 0Z" p-id="8583"></path></svg>