<svg class="icon" style="width: 1em;height: 1em;vertical-align: middle;fill: currentColor;overflow: hidden;" viewBox="0 0 1024 1024" version="1.1" xmlns="http://www.w3.org/2000/svg" p-id="16288"><path d="M921.699768 364.604142c38.37218 0 63.953634 6.395363 76.74436 19.18609 19.18609 12.790727 25.581453 38.37218 25.581453 63.953634v38.37218c0 31.976817-6.395363 51.162907-25.581453 63.953633-12.790727 12.790727-38.37218 25.581453-76.74436 25.581454h-108.721177v95.93045h-63.953634V390.185595c0-6.395363 0-12.790727 6.395363-19.18609 6.395363-6.395363 12.790727-6.395363 19.18609-6.395363h147.093358z m6.395363 153.488721c12.790727 0 25.581453 0 25.581453-6.395364 6.395363-6.395363 6.395363-12.790727 6.395364-25.581453V447.743866c0-12.790727 0-19.18609-6.395364-19.18609-6.395363-6.395363-12.790727-6.395363-31.976816-6.395364h-108.721177V511.697499h115.11654z m-652.327063 364.535711c198.256264 127.907267 460.466162 76.74436 594.768793-115.11654h89.535087c-70.348997 121.511904-191.860901 211.046991-326.163532 243.023808-140.697994 31.976817-281.395988 6.395363-402.907891-70.348997l44.767543-57.558271z m620.350246-716.280696c0 38.37218-25.581453 63.953634-63.953633 63.953633s-63.953634-25.581453-63.953634-63.953633 25.581453-63.953634 63.953634-63.953634 63.953634 25.581453 63.953633 63.953634zM154.256164 255.882965h-83.139723c140.697994-243.023808 447.675435-326.163531 690.699243-191.860901l-44.767544 57.55827c-191.860901-102.325814-434.884709-44.767544-562.791976 134.302631z m370.931075 415.698618c-44.767544 0-70.348997-6.395363-95.93045-25.581453-12.790727-25.581453-25.581453-51.162907-25.581454-89.535087V473.325319c0-38.37218 12.790727-63.953634 31.976817-83.139724 19.18609-19.18609 51.162907-25.581453 95.930451-25.581453h140.697994c19.18609 0 31.976817 12.790727 31.976816 31.976817v25.581453h-179.070174c-19.18609 0-38.37218 6.395363-44.767543 12.790727-6.395363 6.395363-12.790727 19.18609-12.790727 38.37218v76.74436c0 19.18609 6.395363 31.976817 12.790727 44.767544 6.395363 6.395363 25.581453 12.790727 44.767543 12.790727h140.697994c12.790727 0 19.18609 0 25.581454 6.395363 6.395363 6.395363 6.395363 12.790727 6.395363 25.581454v25.581453l-172.674811 6.395363z m-473.256889-306.977441c12.790727 0 31.976817 6.395363 38.372181 19.18609l95.93045 185.465538 89.535087-185.465538c6.395363-12.790727 19.18609-19.18609 38.37218-19.18609h25.581454c6.395363 0 12.790727 0 19.18609 6.395363v294.186715h-63.953634V460.534592l-70.348997 159.884084c-12.790727 12.790727-19.18609 19.18609-38.37218 19.186091h-6.395363c-19.18609 0-31.976817-6.395363-38.37218-19.186091l-76.744361-153.48872v204.651627h-63.953633V390.185595c0-6.395363 0-12.790727 6.395363-19.18609 6.395363-6.395363 12.790727-6.395363 19.18609-6.395363h25.581453z m179.070175 466.861525c0 25.581453-12.790727 44.767544-31.976817 57.558271s-44.767544 12.790727-63.953634 0-31.976817-31.976817-31.976817-57.558271c0-38.37218 25.581453-63.953634 63.953634-63.953633s63.953634 25.581453 63.953634 63.953633z" p-id="16289"></path></svg>