<svg class="icon" style="width: 1.0361328125em;height: 1em;vertical-align: middle;fill: currentColor;overflow: hidden;" viewBox="0 0 1061 1024" version="1.1" xmlns="http://www.w3.org/2000/svg" p-id="10396"><path d="M447.122465 467.332105L49.240301 268.161564A33.501036 33.501036 0 0 0 0.136043 300.744763v441.020484a33.042117 33.042117 0 0 0 16.06214 27.994016L413.162511 1018.034062a33.959954 33.959954 0 0 0 17.438895 5.50702 33.042117 33.042117 0 0 0 33.042117-33.042118V497.161795a33.042117 33.042117 0 0 0-17.438895-29.82969zM398.018207 931.298504l-331.339011-208.348907v-367.134638l331.339011 162.915996zM1046.010843 263.572381a33.042117 33.042117 0 0 0-31.665363 0L550.838 467.332105a33.042117 33.042117 0 0 0-19.733487 30.288608v493.33717a33.042117 33.042117 0 0 0 49.563176 28.452934l463.048562-265.254776a33.042117 33.042117 0 0 0 16.521059-28.452934V291.566398a33.042117 33.042117 0 0 0-14.685386-27.994017z m-50.939931 441.020484L596.72983 931.298504v-413.026468l397.882163-176.224626zM991.399565 178.672496a33.042117 33.042117 0 0 0-22.486996-29.829689L550.838 1.530034a32.583199 32.583199 0 0 0-19.733487 0L83.659173 158.021173a33.042117 33.042117 0 0 0-4.130264 61.036134l397.882163 199.170541a33.042117 33.042117 0 0 0 14.685386 3.212428 33.959954 33.959954 0 0 0 13.30863 0l463.966399-205.595398a33.042117 33.042117 0 0 0 22.028078-37.172382zM494.391049 349.849021L180.490934 195.193555l358.874108-125.743613 328.126583 112.434982z m0 0" fill="" p-id="10397"></path></svg>