<svg class="icon" style="width: 1em;height: 1em;vertical-align: middle;fill: currentColor;overflow: hidden;" viewBox="0 0 1024 1024" version="1.1" xmlns="http://www.w3.org/2000/svg" p-id="5127"><path d="M912.896 472.576h-1.946a5.632 5.632 0 0 1-5.632-5.632c0-108.851-97.996-197.427-218.419-197.427H562.483a31.744 31.744 0 0 1-31.641-31.744c0-15.258 11.264-27.853 24.985-34.509 29.696-14.234 49.869-42.394 49.869-74.752 0-46.694-41.984-84.582-93.594-84.582-51.712 0-93.593 37.888-93.593 84.582 0 32.358 20.173 60.518 49.869 74.752 13.824 6.656 24.985 19.251 24.985 34.509a31.744 31.744 0 0 1-31.744 31.744H337.408c-120.422 0-218.42 88.576-218.42 197.427 0 3.072-2.56 5.632-5.631 5.632h-2.048c-36.967 0-67.175 27.238-67.175 60.723v115.405c0 33.485 30.208 60.826 67.277 60.826h2.048a5.507 5.507 0 0 1 5.53 5.53c0 108.85 97.997 197.426 218.419 197.426 3.482 0 6.246 2.765 6.246 6.144v44.544c0 9.421 8.397 16.999 18.74 16.999 10.342 0 18.739-7.578 18.739-16.999 0-27.955 22.733-50.688 50.79-50.688h160.563c28.058 0 50.79 22.733 50.79 50.688 0 9.421 8.398 16.999 18.74 16.999 10.24 0 18.74-7.578 18.74-16.999v-44.441c0-3.482 2.764-6.247 6.143-6.247 120.525 0 218.522-88.576 218.522-197.427 0-3.072 2.56-5.632 5.632-5.632h2.048c36.966 0 67.277-27.34 67.277-60.825V533.299c0-33.485-30.31-60.723-67.38-60.723zM455.987 128.512c0-27.955 25.19-50.79 56.115-50.79 31.028 0 56.218 22.835 56.218 50.79S543.13 179.2 512 179.2c-30.925 0-56.115-22.835-56.115-50.79zM111.31 675.532c-16.487 0-29.901-11.98-29.901-26.93V533.299c0-14.848 13.414-26.931 29.9-26.931a7.56 7.56 0 0 1 7.578 7.578v154.01a7.578 7.578 0 0 1-7.577 7.577zM867.84 715.06c0 90.215-81.1 163.533-180.94 163.533H337.305c-99.84 0-180.941-73.318-180.941-163.533V466.944c0-90.317 81.1-163.635 180.94-163.635H686.9c99.84 0 180.941 73.318 180.941 163.635v248.115z m74.957-66.457c0 14.95-13.312 26.93-29.901 26.93a7.578 7.578 0 0 1-7.578-7.577V514.048c0-4.096 3.38-7.578 7.578-7.578 16.486 0 29.9 12.084 29.9 26.932v115.302zM662.426 359.834H361.882c-78.848 0-143.156 57.856-143.156 129.228v203.879c0 71.27 64.205 129.229 143.156 129.229h300.544c78.848 0 143.052-57.959 143.052-129.23V489.063c0-71.372-64.204-129.33-143.052-129.33z m-337.51 163.43c0-37.274 33.586-67.584 74.854-67.584 41.267 0 74.854 30.31 74.854 67.584 0 37.376-33.587 67.686-74.854 67.686-41.268 0-74.855-30.31-74.855-67.584z m262.143 208.691H437.248c-10.342 0-18.74-7.577-18.74-16.896 0-9.318 8.398-16.896 18.74-16.896h149.811c10.24 0 18.637 7.578 18.637 16.896 0 9.319-8.294 16.896-18.637 16.896z m37.376-141.005c-41.267 0-74.854-30.31-74.854-67.584 0-37.376 33.587-67.788 74.854-67.788 41.37 0 74.957 30.412 74.957 67.686 0 37.376-33.587 67.686-74.957 67.686z" p-id="5128"></path></svg>