<svg class="icon" style="width: 1em;height: 1em;vertical-align: middle;fill: currentColor;overflow: hidden;" viewBox="0 0 1024 1024" version="1.1" xmlns="http://www.w3.org/2000/svg" p-id="5199"><path d="M196.894048 265.575825q16.981758 0 33.020085 7.547448t27.359499 20.755481l161.3267 189.62963q33.963516 40.567533 37.737239 93.399668l3.773724 73.587618 283.029298-282.085867-74.531048-3.773724q-52.832136-3.773724-93.399668-37.73724l-189.62963-161.3267q-13.208034-11.321172-20.755482-27.359498t-7.547448-33.020085v-39.624102l-100.003685 100.947116-100.003685 99.060255h39.624101z m-105.664271 10.377741q0-18.86862 14.151465-33.020085l115.098581-115.098581 114.15515-114.155151q10.377741-11.321172 25.944353-13.679749t28.774645 5.18887q21.698913 11.321172 21.698913 39.624102v60.379584q0 12.264603 9.43431 19.812051l188.686198 161.326699q27.359499 22.642344 62.266446 24.529206l92.456237 5.660586q20.755482 1.886862 34.906947 15.094896 12.264603 11.321172 13.208034 24.529206v3.773724q0 14.151465-10.377741 25.472637l-124.532891 122.646029 259.443523 336.804864-336.804865-259.443523-122.646029 124.532891q-12.264603 12.264603-28.30293 10.377741-14.151465-0.943431-25.472636-13.208034-13.208034-14.151465-15.094896-34.906946l-5.660586-92.456238q-1.886862-34.906947-24.529206-62.266445l-161.3267-188.686199q-7.547448-9.43431-19.812051-9.43431h-54.718997q-32.076654 1.886862-45.284688-21.698913-5.660586-9.43431-5.660586-21.698912z" p-id="5200"></path></svg>