<?xml version="1.0" standalone="no"?><!DOCTYPE svg PUBLIC "-//W3C//DTD SVG 1.1//EN" "http://www.w3.org/Graphics/SVG/1.1/DTD/svg11.dtd"><svg t="1575802859706" class="icon" viewBox="0 0 1024 1024" version="1.1" xmlns="http://www.w3.org/2000/svg" p-id="3102" xmlns:xlink="http://www.w3.org/1999/xlink" width="200" height="200"><defs><style type="text/css"></style></defs><path d="M310.205952 53.6576v223.291392H415.28832V53.658112H310.205952zM55.771136 305.3568V410.43968H279.06048V305.3568H55.771136z m389.082624 0V410.43968h223.291392V305.3568H444.85376z m357.313024 30.70464v40.96h125.543424v119.42144h40.96V336.06144h-166.503424z m-491.96032 106.68032v223.290368h105.081344V442.74176H310.205952z m617.15456 162.682368v78.462976h40.96v-78.462976h-40.96z m0.349184 194.14016v119.422976h-121.84832v40.96h162.80832v-160.383488h-40.96z m-584.09216 1.165824v160.381952h162.807808v-40.96H384.57856v-119.421952h-40.96z m270.2336 119.421952v40.96h84.583424v-40.96H613.85216z" p-id="9024"></path></svg>