<?xml version="1.0" standalone="no"?><!DOCTYPE svg PUBLIC "-//W3C//DTD SVG 1.1//EN" "http://www.w3.org/Graphics/SVG/1.1/DTD/svg11.dtd"><svg t="1575802859706" class="icon" viewBox="0 0 1024 1024" version="1.1" xmlns="http://www.w3.org/2000/svg" p-id="3102" xmlns:xlink="http://www.w3.org/1999/xlink" width="200" height="200"><defs><style type="text/css"></style></defs><path d="M830.012422 203.52795c-19.080745 0-31.801242 6.360248-44.521739 6.360249v-50.881988c0-57.242236-50.881988-108.124224-108.124223-108.124223-19.080745 0-38.161491 6.360248-50.881988 12.720496-12.720497-38.161491-50.881988-63.602484-95.403727-63.602484S448.397516 25.440994 435.677019 63.602484C416.596273 57.242236 397.515528 50.881988 378.434783 50.881988c-57.242236 0-108.124224 50.881988-108.124224 108.124223v349.813665l-50.881988-101.763975c-12.720497-25.440994-38.161491-44.521739-63.602484-50.881988-31.801242-6.360248-57.242236-6.360248-82.68323 12.720497C22.26087 400.695652 9.540373 464.298137 34.981366 515.180124c6.360248 12.720497 38.161491 82.68323 133.565218 267.130435 44.521739 95.403727 101.763975 165.36646 152.645963 203.52795 44.521739 31.801242 76.322981 31.801242 82.683229 31.801243h254.409938c44.521739 0 82.68323-12.720497 120.844721-44.52174 31.801242-25.440994 63.602484-63.602484 89.043478-114.484472 44.521739-95.403727 69.962733-222.608696 69.962733-381.614906V305.291925c0-57.242236-44.521739-101.763975-108.124224-101.763975zM454.757764 515.180124c19.080745 0 31.801242-12.720497 31.801242-31.801242V108.124224c0-25.440994 19.080745-44.521739 44.521739-44.52174s44.521739 19.080745 44.521739 44.52174v375.254658c0 19.080745 12.720497 31.801242 31.801243 31.801242s31.801242-12.720497 31.801242-31.801242V159.006211c0-25.440994 19.080745-44.521739 44.521739-44.521739s44.521739 19.080745 44.521739 44.521739v375.254659c0 19.080745 12.720497 31.801242 31.801242 31.801242s31.801242-12.720497 31.801243-31.801242V305.291925c0-25.440994 19.080745-44.521739 44.521739-44.521739s44.521739 19.080745 44.521739 44.521739v178.086957c0 139.925466-25.440994 267.130435-63.602485 349.813665-31.801242 57.242236-82.68323 120.84472-159.006211 120.84472H410.236025s-19.080745 0-50.881988-25.440994-76.322981-69.962733-133.565217-178.086956c-89.043478-184.447205-127.204969-254.409938-133.565218-267.130435-12.720497-25.440994-6.360248-50.881988 19.080746-63.602484 0 0 6.360248-6.360248 12.720497-6.360249h12.720497c12.720497 0 19.080745 12.720497 25.440993 19.080745l76.322982 139.925466c19.080745 31.801242 38.161491 44.521739 63.602484 38.161491 25.440994-6.360248 31.801242-25.440994 31.801242-63.602485V159.006211c0-25.440994 19.080745-44.521739 44.52174-44.521739 25.440994 0 44.521739 19.080745 44.521739 44.521739v324.372671c0 19.080745 12.720497 31.801242 31.801242 31.801242z" fill="" p-id="2374"></path></svg>