<?xml version="1.0" standalone="no"?><!DOCTYPE svg PUBLIC "-//W3C//DTD SVG 1.1//EN" "http://www.w3.org/Graphics/SVG/1.1/DTD/svg11.dtd"><svg t="1575802859706" class="icon" viewBox="0 0 1024 1024" version="1.1" xmlns="http://www.w3.org/2000/svg" p-id="3102" xmlns:xlink="http://www.w3.org/1999/xlink" width="200" height="200"><defs><style type="text/css"></style></defs><path d="M102.4 102.4h348.16v148.48h51.2V61.44c0-5.632-4.608-10.24-10.24-10.24H61.44c-5.632 0-10.24 4.608-10.24 10.24v430.08c0 5.632 4.608 10.24 10.24 10.24h184.32V450.56H102.4V102.4zM962.56 522.24h-179.2v51.2h138.24v348.16h-348.16v-158.72h-51.2v199.68c0 5.632 4.608 10.24 10.24 10.24h430.08c5.632 0 10.24-4.608 10.24-10.24v-430.08c0-5.632-4.608-10.24-10.24-10.24z" p-id="10442"></path></svg>