<svg class="icon" style="width: 1em;height: 1em;vertical-align: middle;fill: currentColor;overflow: hidden;" viewBox="0 0 1024 1024" version="1.1" xmlns="http://www.w3.org/2000/svg" p-id="10058"><path d="M128 507.733c0 42.667 4.267 89.6 19.2 128h290.133C448 593.067 452.267 556.8 452.267 512c0-40.533-4.267-83.2-14.934-123.733h-294.4C134.4 426.667 128 462.933 128 507.733z m582.4-119.466H490.667C501.333 424.533 505.6 467.2 505.6 512s-4.267 78.933-14.933 123.733H710.4C778.667 635.733 832 582.4 832 512s-53.333-123.733-121.6-123.733z m-537.6-57.6h249.6c-29.867-64-64-123.734-102.4-170.667-64 42.667-119.467 100.267-147.2 170.667z m580.267 0c64 0 117.333-25.6 155.733-68.267C832 153.6 701.867 85.333 554.667 85.333c-72.534 0-132.267 17.067-192 49.067 49.066 53.333 83.2 121.6 108.8 192l281.6 4.267zM166.4 693.333H416c-25.6 64-57.6 121.6-102.4 164.267-57.6-36.267-113.067-93.867-147.2-164.267z m588.8 0c64 0 117.333 25.6 155.733 68.267C832 868.267 695.467 938.667 554.667 938.667c-72.534 0-132.267-21.334-192-46.934 49.066-53.333 83.2-123.733 108.8-192l283.733-6.4z" fill="" p-id="10059"></path></svg>