<svg class="icon" style="width: 1em;height: 1em;vertical-align: middle;fill: currentColor;overflow: hidden;" viewBox="0 0 1024 1024" version="1.1" xmlns="http://www.w3.org/2000/svg" p-id="21917"><path d="M525.158 921.6a283.351 283.351 0 0 0 55.296 51.2H145.06a93.02 93.02 0 0 1-93.86-92.16V143.36a93.02 93.02 0 0 1 93.86-92.16h682.675a93.025 93.025 0 0 1 93.865 92.16v381.798a281.795 281.795 0 0 0-51.2-33.638V324.27h-768v555.52a42.24 42.24 0 0 0 42.66 41.81h380.098zM870.4 273.065v-128.87a42.24 42.24 0 0 0-42.665-41.795H145.06a42.24 42.24 0 0 0-42.66 41.795v128.87h768z m-358.4-51.2a34.135 34.135 0 1 1 34.13-34.135A34.13 34.13 0 0 1 512 221.865z m119.465 0A34.135 34.135 0 1 1 665.6 187.73a34.13 34.13 0 0 1-34.135 34.135z m119.47 0a34.135 34.135 0 1 1 34.13-34.135 34.13 34.13 0 0 1-34.13 34.135zM449.418 441.283L302.592 569.088a30.136 30.136 0 0 1-41.938 0l-59.684-51.779a28.001 28.001 0 0 1-3.236-38.83v-1.618a25.912 25.912 0 0 1 37.12-3.246l46.777 40.448 135.516-116.475h1.618a27.648 27.648 0 0 1 37.12 4.864c8.043 12.934 6.436 30.72-6.467 38.83z m-3.65 224.558L298.952 793.656a30.136 30.136 0 0 1-41.928 0l-59.694-51.768a28.001 28.001 0 0 1-3.251-38.83v-1.618a25.928 25.928 0 0 1 37.125-3.246l46.781 40.474 135.522-116.501h1.607a27.617 27.617 0 0 1 37.12 4.864c8.054 12.933 6.441 30.72-6.466 38.825zM742.4 972.8a230.4 230.4 0 1 1 230.4-230.4 230.4 230.4 0 0 1-230.4 230.4z m0-51.2a179.2 179.2 0 1 0-179.2-179.2 179.2 179.2 0 0 0 179.2 179.2z m-8.704-170.21l93.952-1.3a25.242 25.242 0 1 1 0.886 50.473l-119.742 1.654a27.832 27.832 0 0 1-26.112-27.515V656.983a25.513 25.513 0 1 1 51.026 0v94.413z m0 0" p-id="21918"></path></svg>