<?xml version="1.0" standalone="no"?><!DOCTYPE svg PUBLIC "-//W3C//DTD SVG 1.1//EN" "http://www.w3.org/Graphics/SVG/1.1/DTD/svg11.dtd"><svg t="1575802859706" class="icon" viewBox="0 0 1024 1024" version="1.1" xmlns="http://www.w3.org/2000/svg" p-id="3102" xmlns:xlink="http://www.w3.org/1999/xlink" width="200" height="200"><defs><style type="text/css"></style></defs><path d="M832 128 192 128C121.344 128 64 185.344 64 256l0 384c0 70.656 57.344 128 128 128l640 0c70.656 0 128-57.344 128-128L960 256C960 185.344 902.656 128 832 128zM896 640c0 35.328-28.608 64-64 64L192 704c-35.392 0-64-28.672-64-64L128 256c0-35.392 28.608-64 64-64l640 0c35.392 0 64 28.608 64 64L896 640zM736 896l-448 0C270.336 896 256 910.336 256 928S270.336 960 288 960l448 0c17.664 0 32-14.336 32-32S753.664 896 736 896z" p-id="7751"></path></svg>