<?xml version="1.0" standalone="no"?><!DOCTYPE svg PUBLIC "-//W3C//DTD SVG 1.1//EN" "http://www.w3.org/Graphics/SVG/1.1/DTD/svg11.dtd"><svg t="1575802859706" class="icon" viewBox="0 0 1024 1024" version="1.1" xmlns="http://www.w3.org/2000/svg" p-id="3102" xmlns:xlink="http://www.w3.org/1999/xlink" width="200" height="200"><defs><style type="text/css"></style></defs><path d="M832 0H192a96 96 0 0 0-96 96v832a96 96 0 0 0 96 96h640a96 96 0 0 0 96-96V96a96 96 0 0 0-96-96z m32 928a32 32 0 0 1-32 32H192a32 32 0 0 1-32-32V96a32 32 0 0 1 32-32h640a32 32 0 0 1 32 32z m-352-128a64 64 0 1 0 64 64 64 64 0 0 0-64-64z m64-704h-128a32 32 0 0 0 0 64h128a32 32 0 0 0 0-64z" p-id="10442"></path></svg>