<?xml version="1.0" standalone="no"?><!DOCTYPE svg PUBLIC "-//W3C//DTD SVG 1.1//EN" "http://www.w3.org/Graphics/SVG/1.1/DTD/svg11.dtd"><svg class="icon" viewBox="0 0 1024 1024" version="1.1" xmlns="http://www.w3.org/2000/svg" p-id="83180"><path d="M894.419759 379.302769l-122.366955 0 0-101.96223c0-65.430198-25.470091-126.941134-71.723531-173.194574-46.25344-46.25344-107.764376-71.723531-173.194574-71.723531s-126.941134 25.470091-173.194574 71.723531-71.723531 107.764376-71.723531 173.194574l0 101.96223-122.366955 0c-11.307533 0-20.466124 9.168824-20.466124 20.466124l0 571.34255c0 11.2973 9.15859 20.466124 20.466124 20.466124l734.570121 0c11.307533 0 20.466124-9.168824 20.466124-20.466124l0-571.34255C914.885883 388.471592 905.727293 379.302769 894.419759 379.302769zM323.148841 277.340539c0-54.501288 21.213137-105.727996 59.740616-144.255475 38.517245-38.517245 89.743954-59.730383 144.245242-59.730383s105.727996 21.213137 144.245242 59.730383c38.527478 38.527478 59.740616 89.754187 59.740616 144.255475l0 101.96223-407.971715 0L323.148841 277.340539 323.148841 277.340539zM873.953635 950.645318l-693.637874 0 0-530.410302 693.637874 0L873.953635 950.645318zM588.348875 644.6256c0 18.071587-7.971555 34.137495-20.404726 45.332465l0 56.691163c0 22.543436-18.276249 40.819684-40.809451 40.819684-22.533202 0-40.809451-18.276249-40.809451-40.819684l0-56.691163c-12.43317-11.19497-20.404726-27.260877-20.404726-45.332465 0-33.810037 27.40414-61.214177 61.214177-61.214177C560.954969 583.411423 588.348875 610.815563 588.348875 644.6256z" p-id="83181"></path></svg>