<?xml version="1.0" standalone="no"?><!DOCTYPE svg PUBLIC "-//W3C//DTD SVG 1.1//EN" "http://www.w3.org/Graphics/SVG/1.1/DTD/svg11.dtd"><svg class="icon" style="width: 1em;height: 1em;vertical-align: middle;fill: currentColor;overflow: hidden;" viewBox="0 0 1024 1024" version="1.1" xmlns="http://www.w3.org/2000/svg" p-id="2647"><path d="M134.229333 721.493333a32.341333 32.341333 0 0 1-6.997333-5.418666 31.36 31.36 0 0 1-5.034667-6.698667 32.213333 32.213333 0 0 1-4.010666-15.616 32.213333 32.213333 0 0 1 4.010666-15.616 31.317333 31.317333 0 0 1 5.034667-6.698667 32.341333 32.341333 0 0 1 6.997333-5.418666l377.514667-217.173334 377.514667 217.173334a32.426667 32.426667 0 0 1 7.04 5.418666 30.976 30.976 0 0 1 4.992 6.698667 32.213333 32.213333 0 0 1 4.010666 15.616 32.213333 32.213333 0 0 1-4.010666 15.616 30.933333 30.933333 0 0 1-4.992 6.698667 32.426667 32.426667 0 0 1-7.04 5.418666L511.744 938.666667z m70.186667-28.16l307.2 176.64 307.2-176.64-307.2-176.64z m-58.026667-148.224l-12.032-6.912a32.554667 32.554667 0 0 1-7.04-5.418666 31.061333 31.061333 0 0 1-4.992-6.698667 32.213333 32.213333 0 0 1-4.010666-15.616 32.213333 32.213333 0 0 1 4.010666-15.616 31.530667 31.530667 0 0 1 4.992-6.698667 32.597333 32.597333 0 0 1 7.04-5.418666l377.514667-217.173334 0.426667 0.256v69.418667z m548.864-44.117333V199.381333l-109.226666 109.226667-42.24-42.24L724.821333 85.333333l181.034667 181.034667-42.24 42.24-108.586667-108.586667v301.013334zM146.389333 364.842667l-12.032-6.912a32.554667 32.554667 0 0 1-7.04-5.418667 31.061333 31.061333 0 0 1-4.992-6.698667 32.213333 32.213333 0 0 1-4.138666-15.573333 32.213333 32.213333 0 0 1 4.010666-15.616 31.317333 31.317333 0 0 1 4.992-6.698667 32.597333 32.597333 0 0 1 7.04-5.418666L511.744 85.333333l0.426667 0.256v69.418667z" p-id="2648"></path></svg>