<?xml version="1.0" standalone="no"?><!DOCTYPE svg PUBLIC "-//W3C//DTD SVG 1.1//EN" "http://www.w3.org/Graphics/SVG/1.1/DTD/svg11.dtd"><svg class="icon" style="width: 1em;height: 1em;vertical-align: middle;fill: currentColor;overflow: hidden;" viewBox="0 0 1024 1024" version="1.1" xmlns="http://www.w3.org/2000/svg" p-id="13841"><path d="M85.333333 844.8v-59.733333h853.333334v59.733333z m192-187.733333a63.573333 63.573333 0 0 1-24.917333-5.034667 63.701333 63.701333 0 0 1-20.352-13.696 64 64 0 0 1-13.738667-20.352A63.658667 63.658667 0 0 1 213.333333 593.066667v-128a63.658667 63.658667 0 0 1 5.034667-24.917334 64 64 0 0 1 13.738667-20.352 63.701333 63.701333 0 0 1 20.352-13.696 63.573333 63.573333 0 0 1 24.917333-5.034666h469.333333a63.616 63.616 0 0 1 24.917334 5.034666 63.701333 63.701333 0 0 1 20.352 13.696 64 64 0 0 1 13.738666 20.352A63.658667 63.658667 0 0 1 810.666667 465.066667v128a63.658667 63.658667 0 0 1-5.034667 24.917333 64 64 0 0 1-13.738667 20.352 64 64 0 0 1-20.352 13.696 63.616 63.616 0 0 1-24.917333 5.034667zM273.066667 597.333333h477.866666v-136.533333H273.066667zM85.333333 273.066667V213.333333h853.333334v59.733334z" p-id="13842"></path></svg>