<?xml version="1.0" standalone="no"?><!DOCTYPE svg PUBLIC "-//W3C//DTD SVG 1.1//EN" "http://www.w3.org/Graphics/SVG/1.1/DTD/svg11.dtd"><svg class="icon" style="width: 1em;height: 1em;vertical-align: middle;fill: currentColor;overflow: hidden;" viewBox="0 0 1024 1024" version="1.1" xmlns="http://www.w3.org/2000/svg" p-id="2863"><path d="M543.786667 757.632l42.24-42.24 109.226666 109.226667v-301.653334h59.733334v301.013334l108.586666-108.586667 42.24 42.24L724.821333 938.666667z m-409.6-36.138667a32.597333 32.597333 0 0 1-7.04-5.418666 31.274667 31.274667 0 0 1-4.992-6.698667 32.213333 32.213333 0 0 1-4.010667-15.616 32.213333 32.213333 0 0 1 4.010667-15.616 31.104 31.104 0 0 1 4.992-6.698667 32.554667 32.554667 0 0 1 7.04-5.418666l12.032-6.912 365.44 210.005333v69.418667l-0.426667 0.256z m0-180.224a32.597333 32.597333 0 0 1-7.04-5.418666 31.530667 31.530667 0 0 1-4.992-6.698667 32.213333 32.213333 0 0 1-4.010667-15.616 32.213333 32.213333 0 0 1 4.010667-15.616 31.061333 31.061333 0 0 1 4.992-6.698667 32.554667 32.554667 0 0 1 7.04-5.418666l12.032-6.912 365.44 210.005333v69.290667l-0.426667 0.256z m0-183.466666a32.341333 32.341333 0 0 1-6.997334-5.418667 31.317333 31.317333 0 0 1-5.034666-6.698667 32.213333 32.213333 0 0 1-3.968-15.445333 32.213333 32.213333 0 0 1 4.010666-15.616 31.317333 31.317333 0 0 1 5.034667-6.698667 32.341333 32.341333 0 0 1 6.997333-5.418666L511.744 85.333333l377.514667 217.173334a32.384 32.384 0 0 1 7.04 5.418666 30.933333 30.933333 0 0 1 4.992 6.698667 32.213333 32.213333 0 0 1 4.010666 15.616 32.213333 32.213333 0 0 1-4.010666 15.616 30.933333 30.933333 0 0 1-4.992 6.698667 32.426667 32.426667 0 0 1-7.04 5.418666l-377.514667 217.173334z m70.186666-27.306667l307.2 176.64 307.2-176.64-307.2-176.64z" p-id="2864"></path></svg>