<?xml version="1.0" standalone="no"?><!DOCTYPE svg PUBLIC "-//W3C//DTD SVG 1.1//EN" "http://www.w3.org/Graphics/SVG/1.1/DTD/svg11.dtd"><svg class="icon" style="width: 1em;height: 1em;vertical-align: middle;fill: currentColor;overflow: hidden;" viewBox="0 0 1024 1024" version="1.1" xmlns="http://www.w3.org/2000/svg" p-id="13887"><path d="M891.4 842.7c0 17.8-14.6 32.4-32.4 32.4H164.7c-17.8 0-32.4-14.6-32.4-32.4 0-17.8 14.6-32.4 32.4-32.4H859c17.8 0 32.4 14.6 32.4 32.4z" fill="#040000" p-id="13888"></path><path d="M546.1 349.2v364.2c0 16.5 13.5 30 30 30h240c16.5 0 30-13.5 30-30V349.2c0-16.5-13.5-30-30-30h-240c-16.5 0-30 13.5-30 30zM417.7 209.2v474.2h-180V209.2h180m30-60h-240c-16.5 0-30 13.5-30 30v534.2c0 16.5 13.5 30 30 30h240c16.5 0 30-13.5 30-30V179.2c0-16.5-13.5-30-30-30z" p-id="13889"></path></svg>