<?xml version="1.0" standalone="no"?><!DOCTYPE svg PUBLIC "-//W3C//DTD SVG 1.1//EN" "http://www.w3.org/Graphics/SVG/1.1/DTD/svg11.dtd"><svg class="icon" viewBox="0 0 1024 1024" version="1.1" xmlns="http://www.w3.org/2000/svg" p-id="80958"><path d="M819.198 910.218 204.799 910.218c-50.267 0-91.022-40.75-91.022-91.02L113.777 204.822c0-50.29 40.755-91.045 91.022-91.045l614.398 0c50.27 0 91.02 40.755 91.02 91.045l0 614.376C910.218 869.468 869.468 910.218 819.198 910.218zM841.953 227.554c0-25.122-20.385-45.51-45.51-45.51L227.554 182.044c-25.122 0-45.51 20.387-45.51 45.51l0 568.889c0 25.125 20.387 45.535 45.51 45.535l568.889 0c25.125 0 45.51-20.39 45.51-45.535L841.953 227.554zM603.268 400.952l-57.14-57.115 0 335.802 55.505-55.5c13.335-13.31 34.93-13.335 48.265 0 13.33 13.335 13.33 34.95 0 48.29l-105.77 105.765c-1.615 3.415-3.525 6.78-6.37 9.625-7.1 7.08-16.475 10.1-25.76 9.67-9.262 0.46-18.66-2.59-25.76-9.69-2.842-2.85-4.8-6.15-6.347-9.58l-105.79-105.79c-13.335-13.34-13.335-34.955 0-48.29 13.332-13.31 34.927-13.335 48.262 0l55.502 55.5L477.865 343.837l-57.117 57.115c-13.335 13.357-34.952 13.335-48.287 0s-13.335-34.93 0-48.265l115.395-115.37c13.332-13.335 34.927-13.357 48.262 0l115.395 115.37c13.335 13.335 13.335 34.952 0 48.265C638.198 414.286 616.583 414.286 603.268 400.952z" fill="#272636" p-id="80959"></path></svg>