<?xml version="1.0" standalone="no"?><!DOCTYPE svg PUBLIC "-//W3C//DTD SVG 1.1//EN" "http://www.w3.org/Graphics/SVG/1.1/DTD/svg11.dtd"><svg class="icon" style="width: 1em;height: 1em;vertical-align: middle;fill: currentColor;overflow: hidden;" viewBox="0 0 1024 1024" version="1.1" xmlns="http://www.w3.org/2000/svg" p-id="13826"><path d="M785.066667 938.666667V85.333333h59.733333v853.333334zM213.333333 938.666667V85.333333h59.733334v853.333334z m251.733334-128a63.573333 63.573333 0 0 1-24.917334-5.034667 63.744 63.744 0 0 1-20.352-13.696 63.616 63.616 0 0 1-13.738666-20.352 63.658667 63.658667 0 0 1-5.034667-24.917333v-469.333334a63.658667 63.658667 0 0 1 5.034667-24.917333 63.573333 63.573333 0 0 1 13.738666-20.352 63.701333 63.701333 0 0 1 20.352-13.696A63.573333 63.573333 0 0 1 465.066667 213.333333h128a63.658667 63.658667 0 0 1 24.917333 5.034667 64 64 0 0 1 20.352 13.696 63.744 63.744 0 0 1 13.696 20.352 63.488 63.488 0 0 1 5.034667 24.917333v469.333334a63.488 63.488 0 0 1-5.034667 24.917333 63.744 63.744 0 0 1-13.696 20.352 64 64 0 0 1-20.352 13.696A63.658667 63.658667 0 0 1 593.066667 810.666667z m-4.266667-59.733334H597.333333V273.066667h-136.533333z" p-id="13827"></path></svg>