<?xml version="1.0" standalone="no"?><!DOCTYPE svg PUBLIC "-//W3C//DTD SVG 1.1//EN" "http://www.w3.org/Graphics/SVG/1.1/DTD/svg11.dtd"><svg class="icon" style="width: 1em;height: 1em;vertical-align: middle;fill: currentColor;overflow: hidden;" viewBox="0 0 1024 1024" version="1.1" xmlns="http://www.w3.org/2000/svg" p-id="2153"><path d="M134.4 721.493333a32.426667 32.426667 0 0 1-7.04-5.418666 30.933333 30.933333 0 0 1-4.992-6.698667 32.213333 32.213333 0 0 1-4.010667-15.616 32.213333 32.213333 0 0 1 4.010667-15.616 30.890667 30.890667 0 0 1 4.992-6.698667 32.341333 32.341333 0 0 1 7.04-5.418666l377.514667-217.173334 377.514666 217.173334a32.341333 32.341333 0 0 1 6.997334 5.418666 31.317333 31.317333 0 0 1 5.034666 6.698667 32.298667 32.298667 0 0 1 4.010667 15.616 32.298667 32.298667 0 0 1-4.010667 15.616 31.317333 31.317333 0 0 1-5.034666 6.698667 32.341333 32.341333 0 0 1-6.997334 5.418666L511.914667 938.666667z m70.186667-28.16l307.2 176.64 307.2-176.64-307.2-176.64z m612.565333-182.869333l-304.853333-175.36-365.44 210.005333-12.032-6.912a32.213333 32.213333 0 0 1-7.04-5.418666 30.976 30.976 0 0 1-4.992-6.698667 32.213333 32.213333 0 0 1-4.010667-15.616 32.213333 32.213333 0 0 1 4.010667-15.616 30.890667 30.890667 0 0 1 4.992-6.698667 32.298667 32.298667 0 0 1 7.04-5.418666l377.514666-217.173334 377.514667 217.173334a32.469333 32.469333 0 0 1 6.997333 5.418666 31.232 31.232 0 0 1 5.034667 6.698667 32.298667 32.298667 0 0 1 4.010667 15.616 32.298667 32.298667 0 0 1-4.010667 15.616 31.36 31.36 0 0 1-5.034667 6.698667 32.341333 32.341333 0 0 1-6.997333 5.418666l-12.074667 6.954667z m-305.194667-61.610667z m305.194667-118.613333l-304.853333-175.36-365.44 210.005333-12.032-6.912a32.213333 32.213333 0 0 1-7.04-5.418666 30.976 30.976 0 0 1-4.992-6.698667 32.213333 32.213333 0 0 1-4.437334-15.616 32.213333 32.213333 0 0 1 4.010667-15.616 30.890667 30.890667 0 0 1 4.992-6.698667 32.298667 32.298667 0 0 1 7.04-5.418666L511.914667 85.333333l377.514666 217.173334a32.469333 32.469333 0 0 1 6.997334 5.418666 31.232 31.232 0 0 1 5.034666 6.698667 32.298667 32.298667 0 0 1 4.010667 15.616 32.298667 32.298667 0 0 1-4.010667 15.616 31.36 31.36 0 0 1-5.034666 6.698667 32.341333 32.341333 0 0 1-6.997334 5.418666l-12.074666 6.954667z" p-id="2154"></path></svg>