<?xml version="1.0" standalone="no"?><!DOCTYPE svg PUBLIC "-//W3C//DTD SVG 1.1//EN" "http://www.w3.org/Graphics/SVG/1.1/DTD/svg11.dtd"><svg class="icon" style="width: 1em;height: 1em;vertical-align: middle;fill: currentColor;overflow: hidden;" viewBox="0 0 1024 1024" version="1.1" xmlns="http://www.w3.org/2000/svg" p-id="2075"><path d="M134.528 721.493333a32.298667 32.298667 0 0 1-7.04-5.418666 30.890667 30.890667 0 0 1-4.992-6.698667 32.213333 32.213333 0 0 1-4.010667-15.616 32.213333 32.213333 0 0 1 4.010667-15.616 31.018667 31.018667 0 0 1 4.992-6.698667 32.256 32.256 0 0 1 7.04-5.418666l12.032-6.912L512 869.12l304.853333-175.36 60.373334-34.688 12.074666 6.954667a32.384 32.384 0 0 1 6.997334 5.418666 31.36 31.36 0 0 1 5.034666 6.698667 32.298667 32.298667 0 0 1 4.010667 15.616 32.298667 32.298667 0 0 1-4.010667 15.616 31.274667 31.274667 0 0 1-5.034666 6.698667 32.469333 32.469333 0 0 1-6.997334 5.418666L511.786667 938.666667z m0-180.224a32.298667 32.298667 0 0 1-7.04-5.418666 30.890667 30.890667 0 0 1-4.992-6.698667 32.213333 32.213333 0 0 1-4.010667-15.616 32.213333 32.213333 0 0 1 4.010667-15.616 31.018667 31.018667 0 0 1 4.992-6.698667 32.256 32.256 0 0 1 7.04-5.418666l12.032-6.912L512 688.896l304.853333-175.36 60.373334-34.688 12.074666 6.954667a32.384 32.384 0 0 1 6.997334 5.418666 31.36 31.36 0 0 1 5.034666 6.698667 32.298667 32.298667 0 0 1 4.010667 15.616 32.298667 32.298667 0 0 1-4.010667 15.616 31.274667 31.274667 0 0 1-5.034666 6.698667 32.469333 32.469333 0 0 1-6.997334 5.418666l-377.514666 217.173334z m0-183.466666a32.426667 32.426667 0 0 1-7.04-5.418667 30.933333 30.933333 0 0 1-4.992-6.698667 32.213333 32.213333 0 0 1-4.138667-15.445333 32.213333 32.213333 0 0 1 4.010667-15.616 30.933333 30.933333 0 0 1 4.992-6.698667 32.384 32.384 0 0 1 7.04-5.418666L511.914667 85.333333l377.514666 217.173334a32.341333 32.341333 0 0 1 6.997334 5.418666 31.317333 31.317333 0 0 1 5.034666 6.698667 32.298667 32.298667 0 0 1 4.010667 15.616 32.298667 32.298667 0 0 1-4.010667 15.616 31.317333 31.317333 0 0 1-5.034666 6.698667 32.341333 32.341333 0 0 1-6.997334 5.418666l-377.514666 217.173334z m70.186667-27.306667l307.2 176.64 307.2-176.64-307.2-176.64z" p-id="2076"></path></svg>