<?xml version="1.0" standalone="no"?><!DOCTYPE svg PUBLIC "-//W3C//DTD SVG 1.1//EN" "http://www.w3.org/Graphics/SVG/1.1/DTD/svg11.dtd"><svg class="icon" viewBox="0 0 1024 1024" version="1.1" xmlns="http://www.w3.org/2000/svg" p-id="83340"><path d="M894.419759 408.844595l-576.643276 0c-8.452509-27.363208-26.462698-85.58933-31.691793-102.545514-16.086373-52.065819-10.939143-107.283422 14.490016-155.460678s68.111261-83.573417 120.17708-99.670024c52.065819-16.086373 107.283422-10.949376 155.460678 14.490016 48.187489 25.429159 83.573417 68.111261 99.670024 120.166847 4.400217 14.285355 27.03575 87.533612 27.03575 87.533612l39.110763-12.075013c0 0-22.635533-73.248258-27.03575-87.533612-19.320021-62.513776-61.817927-113.76095-119.67566-144.296407-57.847499-30.535457-124.137275-36.705993-186.651051-17.385972s-113.750717 61.817927-144.286174 119.665427-36.716226 124.137275-17.406438 186.640818c4.553713 14.745842 18.767436 60.743456 27.956725 90.470501l-115.081015 0c-11.307533 0-20.466124 9.15859-20.466124 20.466124l0 571.332317c0 11.307533 9.15859 20.466124 20.466124 20.466124l734.570121 0c11.307533 0 20.466124-9.15859 20.466124-20.466124l0-571.332317C914.885883 418.003186 905.727293 408.844595 894.419759 408.844595zM873.953635 980.176912l-693.637874 0 0-530.400069 693.637874 0L873.953635 980.176912zM588.348875 674.167426c0 18.061354-7.971555 34.137495-20.404726 45.332465l0 56.691163c0 22.533202-18.276249 40.809451-40.809451 40.809451-22.533202 0-40.809451-18.276249-40.809451-40.809451l0-56.691163c-12.43317-11.19497-20.404726-27.27111-20.404726-45.332465 0-33.82027 27.40414-61.214177 61.214177-61.214177C560.954969 612.95325 588.348875 640.347157 588.348875 674.167426z" p-id="83341"></path></svg>