<?xml version="1.0" standalone="no"?><!DOCTYPE svg PUBLIC "-//W3C//DTD SVG 1.1//EN" "http://www.w3.org/Graphics/SVG/1.1/DTD/svg11.dtd"><svg t="1575802859706" class="icon" viewBox="0 0 1024 1024" version="1.1" xmlns="http://www.w3.org/2000/svg" p-id="3102" xmlns:xlink="http://www.w3.org/1999/xlink" width="200" height="200"><defs><style type="text/css"></style></defs><path d="M879.49918815 772.55778608l-106.94140207 106.9426157h-60.37564683l167.31826253-167.31826253v60.37564683z m0 78.59222755v28.35038815h-28.34917452l28.35038815-28.35038815z m0-217.56010193L633.59112533 879.50040178H573.21547852l262.49959348-262.50080711h43.78532978v16.59031703z m-122.3763437-16.59031703L494.6208237 879.50040178h-60.37443318l262.49959348-262.50080711h60.37564682z m-139.02127408 0L355.60319052 879.50040178h-60.37443319l262.49959349-262.50080711h60.37564681z m-138.96666074 0L216.63531615 879.50040178h-60.37564682l262.50080712-262.50080711h60.37443318z m-138.96787438 0L144.50081185 812.6670317v-59.79674548l135.87069156-135.87069155h59.85014518z m-138.39018666 0l-57.27725037 57.278464v-57.278464h57.278464z m677.72355319-395.69180445L746.30697718 354.50000118h-60.37443318l193.56785778-193.56785777v60.37564681z m0 78.59222756v54.5999834h-54.60119703l54.60119703-54.5999834z m-62.160896-155.40041956L607.34031645 354.50000118H546.96466963l210.00040296-210.00040296h60.37443319z m-138.96666075 0L468.37244208 354.50000118h-60.37443319l209.99918933-210.00040296h60.37564681z m-139.07224651 0L329.30019555 354.50000118h-60.3756468l210.00040295-210.00040296h60.37564682z m-138.9156883 0L190.38450725 354.50000118H144.50081185v-14.43733807l195.5630649-195.56306489h60.37443317z m-138.96787437 0l-116.91743763 116.91743763v-59.79674548l57.12069215-57.12069215h59.85014518zM39.50000355 459.49959585h944.9999929V512H39.50000355v-52.50040415z"></path></svg>