<svg class="icon" style="width: 1em;height: 1em;vertical-align: middle;fill: currentColor;overflow: hidden;" viewBox="0 0 1024 1024" version="1.1" xmlns="http://www.w3.org/2000/svg" p-id="3752"><path d="M195.095936 1024h275.58833a39.401926 39.401926 0 0 0 0-78.803853H195.095936a39.176772 39.176772 0 0 1-39.401926-39.176772v-788.038525A39.401926 39.401926 0 0 1 195.095936 78.804078h630.43082A39.401926 39.401926 0 0 1 864.928682 118.206004v184.175861a39.401926 39.401926 0 1 0 78.578699 0V118.206004A117.980625 117.980625 0 0 0 825.301602 0.000225h-630.43082A118.205779 118.205779 0 0 0 76.890157 118.206004V907.370298a118.205779 118.205779 0 0 0 118.205779 116.629702zM797.382523 694.82505v-67.546159H437.13634a35.349157 35.349157 0 0 1-35.349157-35.57431A35.349157 35.349157 0 0 1 437.13634 556.805732h360.246183v-65.294621a9.456462 9.456462 0 0 1 9.90677-9.006155 11.933155 11.933155 0 0 1 4.953385 1.801231l130.814395 102.445009a10.131924 10.131924 0 0 1 2.701847 11.708 9.90677 9.90677 0 0 1-2.701847 3.377308l-130.364087 100.643778a9.456462 9.456462 0 0 1-13.284078-2.251539 9.681616 9.681616 0 0 1-1.576077-5.628846zM554.441503 792.541827v-62.36762a10.357078 10.357078 0 0 0-16.661386-8.555847l-129.238318 100.643778a10.131924 10.131924 0 0 0-2.927 13.058924 9.006155 9.006155 0 0 0 2.927 3.602462l129.238318 92.08793a11.032539 11.032539 0 0 0 15.085309-3.827616 13.058924 13.058924 0 0 0 1.576077-4.728231v-59.215466H909.959455a35.349157 35.349157 0 0 0 35.349157-35.349157A35.349157 35.349157 0 0 0 909.959455 792.541827z m-225.153864-394.019262h226.504788A83.532084 83.532084 0 0 0 639.774818 315.215635v-78.803852A82.631468 82.631468 0 0 0 555.792427 157.60793H329.062485a82.631468 82.631468 0 0 0-83.532083 78.578699V315.215635a83.532084 83.532084 0 0 0 83.306929 83.532084zM324.559408 315.215635l4.728231-78.578698h231.233019V315.215635a4.953385 4.953385 0 0 1-4.503078 4.953385L324.559408 315.215635z" p-id="3753"></path></svg>