<svg class="icon" style="width: 1em;height: 1em;vertical-align: middle;fill: currentColor;overflow: hidden;" viewBox="0 0 1024 1024" version="1.1" xmlns="http://www.w3.org/2000/svg" p-id="4261"><path d="M991.424 505.28L992 512v320a32 32 0 0 1-26.24 31.488L960 864a32 32 0 0 1-31.488-26.24L928 832v-80.512l-1.536 2.752a479.808 479.808 0 0 1-398.912 237.504L512 992a480 480 0 0 1-433.792-274.24 32 32 0 0 1 57.792-27.52 416 416 0 0 0 791.68-163.328L928 512l0.576-6.72c5.952-33.728 56.896-33.728 62.848 0z m-234.688-215.232A32 32 0 0 1 800 320v352a32 32 0 0 1-20.736 29.952l-256 96a33.28 33.28 0 0 1-16.256 1.664 33.28 33.28 0 0 1-6.272-1.664l3.392 1.088a31.936 31.936 0 0 1-2.24-0.64l-1.152-0.448-256-96A32 32 0 0 1 224 672V320a32 32 0 0 1 43.264-29.952L512 381.76zM288 366.208v283.584l192 72V438.208l-192-72z m448-0.064l-192 72v283.648l192-72V366.144zM512 32a480 480 0 0 1 433.792 274.24 32 32 0 0 1-57.792 27.52A416 416 0 0 0 96 512c0 40.32-57.088 42.56-63.424 6.72L32 512V192a32 32 0 0 1 63.488-5.76L96 192v80.32l1.536-2.56A479.808 479.808 0 0 1 496.448 32.256L512 32z" fill="" p-id="4262"></path></svg>