<svg class="icon" style="width: 1em;height: 1em;vertical-align: middle;fill: currentColor;overflow: hidden;" viewBox="0 0 1024 1024" version="1.1" xmlns="http://www.w3.org/2000/svg" p-id="15530"><path d="M743.7184 413.0048H228.8384v75.9936h514.88v-75.9936zM228.8384 689.728h228.8384v-76.0448H228.8384v76.0448z m514.88-473.728H228.8384v75.9936h514.88v-75.9936zM439.1424 947.9424H104.8704V75.9936H867.712v413.0048c0 21.1072 16.9472 38.0032 38.1184 38.0032s38.1696-16.896 38.1696-38.0032V75.9936C944 34.3296 909.568 0 867.712 0H104.8704C63.0272 0 28.6208 33.7792 28.6208 75.9936v871.9488c0 41.728 34.4064 76.0576 76.2496 76.0576h334.272c21.184 0 38.144-16.8832 38.144-38.0416 0.0128-21.12-17.4848-38.016-38.144-38.016z m545.1008-3.1616l-101.696-103.0016c20.672-31.6672 31.2576-68.672 31.2576-106.112 0-109.888-90.0608-199.1168-200.2816-199.1168-110.1696 0-200.2048 89.2288-200.2048 199.1168 0 109.8368 90.0224 199.0656 200.2048 199.0656 43.4688 0 83.6992-14.2336 116.5824-37.4912l100.0832 101.376c7.4624 7.4496 16.9984 11.6736 27.0336 11.1104 21.2224 0 38.1568-16.8832 38.1568-37.9904-0.5504-10.0608-4.224-19.5712-11.136-26.9568z m-271.2192-86.1056c-68.3264 0-123.9424-55.4496-123.9424-123.008 0-68.16 55.616-123.0592 123.9424-123.0592 68.3136 0 123.9296 55.4496 123.9296 123.0592 0 67.5584-55.616 123.008-123.9296 123.008z m0 0" fill="" p-id="15531"></path></svg>