<?xml version="1.0" standalone="no"?><!DOCTYPE svg PUBLIC "-//W3C//DTD SVG 1.1//EN" "http://www.w3.org/Graphics/SVG/1.1/DTD/svg11.dtd"><svg t="1575802859706" class="icon" viewBox="0 0 1024 1024" version="1.1" xmlns="http://www.w3.org/2000/svg" p-id="3102" xmlns:xlink="http://www.w3.org/1999/xlink" width="200" height="200"><defs><style type="text/css"></style></defs><path d="M477.696 831.488L477.696 547.84 582.144 547.84 582.144 703.48800001c0 17.92 14.848 32.768 32.768 32.76799999L811.52 736.256c17.92 0 32.768-14.848 32.768-32.768L844.288 547.84 943.104 547.84c9.21600001 0 16.896-7.67999999 16.896-16.896l0-38.912c0-9.21600001-7.67999999-16.896-16.896-16.896l-99.328 0 0-155.136c0-17.92-14.848-32.768-32.768-32.76799999L614.4 287.232c-17.92 0-32.768 14.848-32.768 32.768L581.632 476.16l-104.448 0 0-283.136c0-17.92-14.848-32.768-32.768-32.768L211.968 160.256c-17.92 0-32.768 14.848-32.76799999 32.768L179.2 476.16l-99.328 0c-9.21600001 0-16.896 7.67999999-16.896 16.896l0 38.912c0 9.21600001 7.67999999 16.896 16.896 16.896L179.2 548.864 179.2 831.488c0 17.92 14.848 32.768 32.768 32.768L444.416 864.25599999c18.432 0 33.28-14.848 33.28-32.76799999z m-225.792-599.55200001l153.6 0L405.504 476.16l-153.6 0 0-244.22400001z m0 560.12800002L251.904 547.84l153.6 0L405.504 792.06400001l-153.6 0z" p-id="7751"></path></svg>