<?xml version="1.0" standalone="no"?><!DOCTYPE svg PUBLIC "-//W3C//DTD SVG 1.1//EN" "http://www.w3.org/Graphics/SVG/1.1/DTD/svg11.dtd"><svg t="1575802859706" class="icon" viewBox="0 0 1024 1024" version="1.1" xmlns="http://www.w3.org/2000/svg" p-id="3102" xmlns:xlink="http://www.w3.org/1999/xlink" width="200" height="200"><defs><style type="text/css"></style></defs><path d="M831.488 546.304H547.84V441.856h155.136c17.92 0 32.768-14.848 32.768-32.768V212.48c0-17.92-14.848-32.768-32.768-32.768H547.84V80.896c0-9.216-7.68-16.896-16.896-16.896h-38.912c-9.216 0-16.896 7.68-16.896 16.896v99.328H320.512c-17.92 0-32.768 14.848-32.768 32.768V409.6c0 17.92 14.848 32.768 32.768 32.768H476.16v104.448H192.512c-17.92 0-32.768 14.848-32.768 32.768V812.032c0 17.92 14.848 32.768 32.768 32.768H476.16v99.328c0 9.216 7.68 16.896 16.896 16.896h38.912c9.216 0 16.896-7.68 16.896-16.896V844.8h283.136c17.92 0 32.768-14.848 32.768-32.768V579.584c-0.512-18.432-15.36-33.28-33.28-33.28zM231.936 772.096v-153.6H476.16v153.6H231.936z m560.128 0H547.84v-153.6h244.224v153.6z" p-id="2405"></path></svg>