<svg class="icon" style="width: 1em;height: 1em;vertical-align: middle;fill: currentColor;overflow: hidden;" viewBox="0 0 1024 1024" version="1.1" xmlns="http://www.w3.org/2000/svg" p-id="4874"><path d="M984.624527 224.548518H39.39961a39.375229 39.375229 0 1 1 0-78.750457h255.999939V78.750457A78.945505 78.945505 0 0 1 374.174387 0h275.699744a78.945505 78.945505 0 0 1 78.774838 78.750457v67.047604h255.999939a39.375229 39.375229 0 1 1-0.024381 78.750457zM649.84975 78.750457H374.150006v59.001891h275.699744V78.750457z m35.352373 753.12744a37.766086 37.766086 0 0 1-55.125321 0L511.999878 713.630306l-118.076924 118.247591a37.766086 37.766086 0 0 1-55.12532 0 38.083039 38.083039 0 0 1 0-55.100939L456.898939 658.285558l-114.151592-114.34664a39.009515 39.009515 0 1 1 55.100939-55.100939L511.999878 603.184618l114.151592-114.346639a39.009515 39.009515 0 1 1 55.100939 55.100939L567.100817 658.285558l118.101306 118.4914a38.083039 38.083039 0 0 1-0.097524 55.100939zM110.275021 291.352312a37.302848 37.302848 0 0 1 39.39961 39.497133v582.948433a31.085707 31.085707 0 0 0 31.500183 31.451421h657.724796a31.134469 31.134469 0 0 0 31.500183-31.451421V330.849445a37.278467 37.278467 0 0 1 39.375228-39.497133 32.646087 32.646087 0 0 1 35.449897 39.497133v582.948433A110.055593 110.055593 0 0 1 834.949896 1023.999756H181.174814a110.079974 110.079974 0 0 1-110.275021-110.201878V330.849445a37.278467 37.278467 0 0 1 39.375228-39.497133z" fill="#333333" p-id="4875"></path></svg>